<?xml version="1.0" encoding="UTF-8" standalone="no"?>
<!DOCTYPE svg PUBLIC "-//W3C//DTD SVG 1.1//EN" "http://www.w3.org/Graphics/SVG/1.1/DTD/svg11.dtd"
[
<!ATTLIST g
  xmlns:vectornator CDATA #FIXED "http://vectornator.io"
  vectornator:layerName CDATA #IMPLIED >
<!ATTLIST g
  xmlns:vectornator CDATA #FIXED "http://vectornator.io"
  vectornator:mask CDATA #IMPLIED >
<!ATTLIST text
  xmlns:vectornator CDATA #FIXED "http://vectornator.io"
  vectornator:width CDATA #IMPLIED >

<!ATTLIST path
  xmlns:vectornator CDATA #FIXED "http://vectornator.io"
  vectornator:blendMode CDATA #IMPLIED >
<!ATTLIST path
  xmlns:vectornator CDATA #FIXED "http://vectornator.io"
  vectornator:shadowColor CDATA #IMPLIED >
<!ATTLIST path
  xmlns:vectornator CDATA #FIXED "http://vectornator.io"
  vectornator:shadowOpacity CDATA #IMPLIED >
<!ATTLIST path
  xmlns:vectornator CDATA #FIXED "http://vectornator.io"
  vectornator:shadowRadius CDATA #IMPLIED >
<!ATTLIST path
  xmlns:vectornator CDATA #FIXED "http://vectornator.io"
  vectornator:shadowOffset CDATA #IMPLIED >
<!ATTLIST path
  xmlns:vectornator CDATA #FIXED "http://vectornator.io"
  vectornator:shadowAngle CDATA #IMPLIED >

<!ATTLIST image
  xmlns:vectornator CDATA #FIXED "http://vectornator.io"
  vectornator:blendMode CDATA #IMPLIED >
<!ATTLIST image
  xmlns:vectornator CDATA #FIXED "http://vectornator.io"
  vectornator:shadowColor CDATA #IMPLIED >
<!ATTLIST image
  xmlns:vectornator CDATA #FIXED "http://vectornator.io"
  vectornator:shadowOpacity CDATA #IMPLIED >
<!ATTLIST image
  xmlns:vectornator CDATA #FIXED "http://vectornator.io"
  vectornator:shadowRadius CDATA #IMPLIED >
<!ATTLIST image
  xmlns:vectornator CDATA #FIXED "http://vectornator.io"
  vectornator:shadowOffset CDATA #IMPLIED >
<!ATTLIST image
  xmlns:vectornator CDATA #FIXED "http://vectornator.io"
  vectornator:shadowAngle CDATA #IMPLIED >

<!ATTLIST g
  xmlns:vectornator CDATA #FIXED "http://vectornator.io"
  vectornator:blendMode CDATA #IMPLIED >
<!ATTLIST g
  xmlns:vectornator CDATA #FIXED "http://vectornator.io"
  vectornator:shadowColor CDATA #IMPLIED >
<!ATTLIST g
  xmlns:vectornator CDATA #FIXED "http://vectornator.io"
  vectornator:shadowOpacity CDATA #IMPLIED >
<!ATTLIST g
  xmlns:vectornator CDATA #FIXED "http://vectornator.io"
  vectornator:shadowRadius CDATA #IMPLIED >
<!ATTLIST g
  xmlns:vectornator CDATA #FIXED "http://vectornator.io"
  vectornator:shadowOffset CDATA #IMPLIED >
<!ATTLIST g
  xmlns:vectornator CDATA #FIXED "http://vectornator.io"
  vectornator:shadowAngle CDATA #IMPLIED >

<!ENTITY % SVG.filter.extra.content  "| feDropShadow" >
<!ELEMENT feDropShadow EMPTY>
<!ATTLIST feDropShadow
  xmlns:svg CDATA #FIXED "http://www.w3.org/Graphics/SVG/1.1/DTD/svg11.dtd"
  dx CDATA #IMPLIED>
<!ATTLIST feDropShadow
  xmlns:svg CDATA #FIXED "http://www.w3.org/Graphics/SVG/1.1/DTD/svg11.dtd"
  dy CDATA #IMPLIED>
<!ATTLIST feDropShadow
  xmlns:svg CDATA #FIXED "http://www.w3.org/Graphics/SVG/1.1/DTD/svg11.dtd"
  stdDeviation CDATA #IMPLIED>
<!ATTLIST feDropShadow
  xmlns:svg CDATA #FIXED "http://www.w3.org/Graphics/SVG/1.1/DTD/svg11.dtd"
  flood-opacity CDATA #IMPLIED>
<!ATTLIST feDropShadow
  xmlns:svg CDATA #FIXED "http://www.w3.org/Graphics/SVG/1.1/DTD/svg11.dtd"
  in CDATA #IMPLIED>
<!ATTLIST feDropShadow
  xmlns:svg CDATA #FIXED "http://www.w3.org/Graphics/SVG/1.1/DTD/svg11.dtd"
  result CDATA #IMPLIED>
<!ATTLIST feDropShadow
  xmlns:svg CDATA #FIXED "http://www.w3.org/Graphics/SVG/1.1/DTD/svg11.dtd"
  flood-color CDATA #IMPLIED>
]
>
<!-- Created with Vectornator (http://vectornator.io/) -->
<svg height="100%" stroke-miterlimit="10" style="fill-rule:nonzero;clip-rule:evenodd;stroke-linecap:round;stroke-linejoin:round;" version="1.1" viewBox="0 0 616.291 541.031" width="100%" xml:space="preserve" xmlns="http://www.w3.org/2000/svg" xmlns:vectornator="http://vectornator.io" xmlns:xlink="http://www.w3.org/1999/xlink">
<defs/>
<clipPath id="ArtboardFrame">
<rect height="541.031" width="616.291" x="0" y="0"/>
</clipPath>
<g clip-path="url(#ArtboardFrame)" id="Layer-1" vectornator:layerName="Layer 1">
<g opacity="1" vectornator:blendMode="darken">
<path d="M162.028 177.533C162.028 188.659 164.506 199.294 165.424 210.358C165.961 216.827 165.903 224.079 168.214 230.241C172.379 241.351 188.732 252.698 199.208 257.543C203.558 259.554 209.631 261.515 214.428 259.917C224.627 256.521 232.892 247.816 241.19 241.44C244.32 239.034 247.127 237.223 249.556 233.99C254.839 226.955 254.185 219.14 254.185 210.815C254.185 197.778 253.855 184.693 253.169 171.673C252.768 164.076 253.798 154.428 249.889 147.552C244.706 138.435 230.903 126.914 220.47 124.597C214.923 123.365 208.872 123.857 203.249 123.857C198.953 123.857 195.2 123.546 191.068 125.054C181.36 128.598 175.922 134.758 169.572 142.517C165.352 147.673 161.373 151.809 158.55 157.992C153.753 168.493 154.227 179.725 154.227 190.979C154.227 194.712 153.907 194.803 155.122 198.294C157.55 205.269 163.657 210.762 167.827 216.719" fill="#ffffff" fill-rule="evenodd" stroke="none"/>
<path d="M212.75 122.188C210.044 122.132 207.35 122.253 204.656 122.281C199.894 122.331 195.101 121.922 190.531 123.562C185.544 125.352 181.048 128.203 177.156 131.781C173.524 135.121 170.46 138.999 167.312 142.781C164.944 145.628 162.482 148.425 160.406 151.5C158.595 154.184 157.099 157.028 155.969 160.062C152.791 168.591 152.603 177.792 152.625 186.781C152.629 188.466 152.646 190.128 152.625 191.812C152.61 193.006 152.525 194.22 152.688 195.406C152.934 197.204 153.61 199.009 154.344 200.656C156.698 205.943 160.609 210.292 164.219 214.781C164.484 219.029 164.753 223.294 165.781 227.438C167.551 234.572 172.083 240.014 177.438 244.875C182.933 249.864 189.199 254.141 195.781 257.562C201.011 260.281 207.497 262.955 213.5 261.719C216.677 261.064 219.768 259.456 222.531 257.812C227.741 254.713 232.337 250.723 236.969 246.844C238.911 245.218 240.853 243.589 242.875 242.062C244.633 240.735 246.457 239.452 248.062 237.938C249.337 236.735 250.484 235.418 251.469 233.969C256.146 227.083 255.749 218.764 255.719 210.812C255.685 202.093 255.579 193.371 255.281 184.656C255.122 179.986 254.865 175.325 254.688 170.656C254.423 163.686 255.065 156.389 252.594 149.719C251.526 146.835 249.759 144.259 247.844 141.875C243.546 136.526 238.231 131.881 232.438 128.219C228.864 125.96 224.96 123.995 220.812 123.062C218.162 122.467 215.456 122.243 212.75 122.188ZM212.438 125.344C215.025 125.386 217.597 125.559 220.125 126.125C224.45 127.093 228.477 129.328 232.125 131.781C237.08 135.114 241.659 139.153 245.406 143.812C247.11 145.93 248.705 148.217 249.656 150.781C252.003 157.107 251.307 164.171 251.562 170.781C251.743 175.446 252.025 180.084 252.188 184.75C252.49 193.434 252.616 202.124 252.656 210.812C252.69 218.093 253.183 225.924 248.906 232.25C248.051 233.515 247.08 234.673 245.969 235.719C244.199 237.384 242.164 238.731 240.25 240.219C238.471 241.601 236.726 243.053 235 244.5C230.166 248.554 225.381 252.758 219.844 255.844C217.701 257.038 215.328 258.252 212.906 258.75C210.946 259.153 208.884 258.988 206.938 258.594C202.98 257.792 199.303 256.015 195.781 254.094C189.959 250.917 184.385 247.116 179.469 242.656C175.82 239.346 172.255 235.525 170.156 231C169.295 229.144 168.744 227.157 168.344 225.156C167.886 222.867 167.649 220.544 167.469 218.219C167.91 218.328 168.354 218.288 168.75 218C169.461 217.482 169.643 216.493 169.125 215.781C168.491 214.91 167.789 214.095 167.125 213.25C166.937 210.392 166.678 207.532 166.344 204.688C165.279 195.631 163.609 186.678 163.531 177.531C163.524 176.698 162.833 176.024 162 176.031C161.167 176.038 160.524 176.698 160.531 177.531C160.61 186.789 162.298 195.865 163.375 205.031C163.529 206.339 163.596 207.657 163.719 208.969C163.559 208.773 163.409 208.571 163.25 208.375C160.979 205.576 158.727 202.687 157.25 199.375C156.639 198.005 156.049 196.467 155.844 194.969C155.685 193.807 155.805 192.607 155.812 191.438C155.825 189.411 155.81 187.37 155.812 185.344C155.823 177.201 156.064 168.908 158.938 161.188C161.314 154.803 165.461 149.969 169.75 144.812C173.264 140.587 176.694 136.222 180.938 132.688C184.115 130.041 187.701 127.935 191.594 126.531C195.795 125.016 200.309 125.486 204.688 125.438C207.256 125.409 209.85 125.302 212.438 125.344Z" fill="#000000" stroke="none"/>
</g>
<g opacity="1" vectornator:blendMode="darken">
<path d="M168.671 219.749C168.671 215.234 167.326 203.008 169.305 199.619C170.649 197.315 173.37 196.159 175.291 194.309C176.404 193.237 177.495 192.143 178.567 191.032C179.527 190.039 180.262 187.192 181.386 187.995C182.609 188.87 180.872 190.961 180.509 192.42C180.092 194.093 179.341 195.683 179.05 197.382C177.727 205.11 179.153 211.43 183.76 217.728C184.483 218.717 185.037 220.753 186.225 220.455C187.585 220.114 187.834 218.044 188.032 216.656C188.299 214.79 187.631 212.902 187.574 211.017C187.312 202.306 187.812 197.963 191.949 190.484C192.718 189.095 193.009 186.398 194.591 186.523C196.014 186.635 195.235 189.321 195.295 190.747C195.44 194.21 193.964 197.845 195.034 201.141C195.971 204.029 199.228 208.7 201.56 210.887C202.459 211.731 203.601 213.604 204.639 212.938C205.766 212.214 204.627 210.258 204.625 208.919C204.621 206.178 204.405 203.427 204.625 200.695C205.322 192.038 207.743 183.779 215.027 178.441C216.341 177.478 217.515 176.054 219.119 175.765C220.369 175.539 221.863 176.103 222.705 177.054C223.906 178.411 223.95 180.463 224.727 182.1C228.119 189.239 233.422 196.629 235.072 204.545C235.723 207.669 235.571 208.813 235.571 211.915C235.571 213.071 234.694 216.135 235.571 215.382C236.797 214.33 236.571 212.306 236.945 210.735C238.303 205.033 239.315 199.049 240.245 193.264C240.469 191.867 240.534 190.447 240.745 189.048C240.926 187.847 240.211 185.378 241.422 185.468C242.756 185.567 242.454 187.94 242.884 189.207C243.276 190.364 243.533 191.562 243.885 192.732C244.841 195.904 245.959 199.028 246.839 202.223C247.21 203.569 246.529 205.761 247.819 206.296C249.082 206.82 250.484 205.185 251.255 204.055C251.912 203.092 251.488 201.732 251.713 200.588C252.419 197.005 253.753 193.573 254.625 190.026C257.787 177.169 262.48 160.6 254.264 148.784" fill="#ffffff" fill-rule="evenodd" stroke="none"/>
<path d="M254.562 147.219C254.163 147.139 253.741 147.224 253.375 147.469C252.644 147.958 252.448 148.925 252.938 149.656C260.531 160.997 256.523 175.824 253.5 188.031C252.932 190.325 252.279 192.583 251.594 194.844C251.048 196.643 250.47 198.455 250.156 200.312C249.994 201.275 250.377 202.593 249.781 203.406C249.478 203.82 249.12 204.239 248.719 204.562C248.676 204.597 248.636 204.626 248.594 204.656C248.583 203.714 248.613 202.698 248.375 201.812C248.229 201.268 248.067 200.728 247.906 200.188C247.747 199.651 247.574 199.097 247.406 198.562C247.24 198.032 247.077 197.498 246.906 196.969C246.607 196.038 246.169 194.777 245.875 193.844C245.326 192.101 244.758 190.282 244.344 188.5C244.118 187.528 244.142 186.53 243.75 185.594C243.358 184.657 242.479 183.843 241.406 183.875C240.24 183.91 239.446 184.637 239.188 185.75C238.949 186.778 239.318 187.817 239.188 188.844C238.826 191.695 238.446 194.537 237.969 197.375C237.805 198.348 237.642 199.31 237.469 200.281C237.209 201.738 236.944 203.205 236.656 204.656C236.648 204.698 236.633 204.739 236.625 204.781C236.47 203.904 236.345 203.04 236.094 202.156C233.979 194.709 229.398 188.381 226.156 181.438C225.491 180.013 225.372 178.415 224.594 177.031C223.276 174.688 220.278 173.522 217.75 174.562C216.566 175.05 215.659 175.92 214.688 176.719C214.19 177.128 213.657 177.501 213.156 177.906C206.003 183.703 203.321 193.108 203 202C202.933 203.857 203.027 205.706 203.062 207.562C203.074 208.182 203.057 208.821 203.125 209.438C203.165 209.797 203.225 210.149 203.312 210.5C202.912 210.06 202.477 209.649 202.062 209.219C200.245 207.329 198.733 205.134 197.469 202.844C196.857 201.735 196.334 200.586 196.188 199.312C196.072 198.306 196.237 197.149 196.344 196.156C196.438 195.278 196.589 194.41 196.688 193.531C196.759 192.893 196.828 192.299 196.844 191.656C196.857 191.121 196.803 190.595 196.844 190.062C196.92 189.062 197.094 188.027 196.875 187.031C196.573 185.654 195.34 184.714 193.906 185.062C191.991 185.528 191.488 187.566 190.875 189.156C190.665 189.701 190.369 190.168 190.094 190.688C188.666 193.378 187.458 196.208 186.781 199.188C185.902 203.059 185.864 207.144 186.062 211.094C186.146 212.752 186.678 214.427 186.562 216.094C186.508 216.882 186.372 217.839 186 218.594C185.982 218.562 185.955 218.532 185.938 218.5C185.758 218.185 185.615 217.879 185.438 217.562C184.858 216.528 184.083 215.611 183.469 214.594C181.769 211.779 180.632 208.648 180.25 205.375C179.927 202.607 180.014 199.619 180.688 196.906C181.041 195.481 181.571 193.946 182.062 192.562C182.369 191.701 182.859 190.911 183.125 190.031C183.565 188.574 183.135 186.771 181.438 186.406C179.264 185.939 178.566 188.501 177.594 189.844C177.028 190.625 176.029 191.479 175.344 192.156C174.629 192.862 174.117 193.382 173.344 194C171.453 195.511 169.25 196.711 168 198.875C166.667 201.182 166.74 204.721 166.719 207.25C166.684 211.429 167.113 215.574 167.156 219.75C167.165 220.583 167.855 221.259 168.688 221.25C169.52 221.241 170.196 220.552 170.188 219.719C170.137 214.938 169.59 210.192 169.781 205.406C169.842 203.89 169.874 202.094 170.469 200.656C171.101 199.128 172.802 198.142 174.062 197.219C174.834 196.653 175.609 196.054 176.312 195.406C177.087 194.693 177.823 193.937 178.562 193.188C178.635 193.114 178.679 193.041 178.75 192.969C178.69 193.178 178.631 193.388 178.562 193.594C178.278 194.449 177.967 195.311 177.75 196.188C176.078 202.939 177.304 210.236 180.875 216.156C181.425 217.067 182.098 217.879 182.656 218.781C183.338 219.882 183.781 221.36 185.125 221.844C185.828 222.097 186.557 222.023 187.219 221.688C188.953 220.809 189.323 218.58 189.531 216.844C189.771 214.841 189.189 212.926 189.094 210.938C188.855 205.946 189.065 200.887 190.906 196.188C191.646 194.299 192.7 192.589 193.531 190.75C193.624 190.545 193.704 190.337 193.781 190.125C193.778 190.188 193.783 190.25 193.781 190.312C193.759 190.999 193.773 191.688 193.719 192.375C193.626 193.539 193.436 194.684 193.312 195.844C193.173 197.158 193.01 198.297 193.156 199.625C193.42 202.016 194.609 204.193 195.875 206.188C197.036 208.016 198.343 209.778 199.844 211.344C201.095 212.649 202.733 215.015 204.781 214.531C205.137 214.447 205.501 214.234 205.781 214C207.505 212.559 206.186 210.606 206.156 208.875C206.133 207.505 206.118 206.151 206.094 204.781C205.947 196.349 207.784 186.867 214.344 181C215.476 179.987 216.703 179.023 217.906 178.094C218.493 177.641 219.136 177.195 219.906 177.281C222.166 177.533 222.308 180.075 222.906 181.781C223.261 182.793 223.725 183.612 224.219 184.594C227.818 191.75 232.817 198.645 233.875 206.781C234.1 208.508 234.155 210.368 234 212.094C233.938 212.783 233.777 213.471 233.688 214.156C233.584 214.95 233.486 216.008 234.188 216.594C235.194 217.434 236.323 217.02 237.062 216.125C237.889 215.125 238.089 213.84 238.25 212.594C238.317 212.077 238.392 211.572 238.5 211.062C238.6 210.591 238.705 210.127 238.812 209.656C240.027 204.322 240.966 198.904 241.812 193.5C241.897 192.958 241.942 192.42 242 191.875C242.069 192.103 242.124 192.337 242.188 192.562C242.545 193.842 242.968 195.111 243.375 196.375C243.697 197.373 244.061 198.53 244.375 199.531C244.681 200.506 245.2 201.801 245.344 202.812C245.605 204.656 244.966 206.797 247.188 207.75C247.41 207.845 247.667 207.932 247.906 207.969C250.099 208.304 252.704 205.622 253.125 203.594C253.37 202.415 253.165 201.241 253.438 200.031C253.632 199.17 253.883 198.317 254.125 197.469C254.457 196.304 254.808 195.16 255.156 194C256.347 190.03 257.307 185.98 258.219 181.938C260.781 170.577 262.409 158.104 255.594 147.906C255.349 147.541 254.962 147.298 254.562 147.219Z" fill="#000000" stroke="none"/>
</g>
<g opacity="1" vectornator:blendMode="darken">
<path d="M192.543 210.99C180.919 205.451 176.238 209.32 170.191 219.512" fill="#ffffff" fill-rule="evenodd" stroke="none"/>
<path d="M184.938 207.031C182.148 206.736 179.373 207.206 176.75 209C175.495 209.858 174.4 210.917 173.406 212.062C171.643 214.095 170.201 216.392 168.812 218.688C168.358 219.441 168.622 220.421 169.375 220.875C170.128 221.329 171.108 221.097 171.562 220.344C172.669 218.505 173.799 216.66 175.125 214.969C175.942 213.927 176.817 212.935 177.844 212.094C182.219 208.508 187.289 210.195 191.906 212.344C192.661 212.696 193.554 212.38 193.906 211.625C194.258 210.87 193.942 209.977 193.188 209.625C190.54 208.389 187.727 207.326 184.938 207.031Z" fill="#000000" stroke="none"/>
</g>
<g opacity="1" vectornator:blendMode="darken">
<path d="M190.822 209.097C189.564 208.149 187.856 208.023 186.332 207.624C185.138 207.312 183.756 206.349 182.689 206.969C181.486 207.668 181.406 209.447 180.939 210.757C180.068 213.198 178.418 219.358 179.325 221.923C179.716 223.031 180.725 223.895 181.734 224.498C183.068 225.295 187.503 226.076 189.076 225.787C193.981 224.887 194.452 216.736 193.21 212.811C192.766 211.408 191.997 209.983 190.822 209.097Z" fill="#ffffff" fill-rule="evenodd" stroke="none"/>
<path d="M184.312 205.375C183.589 205.22 182.868 205.224 182.062 205.594C180.17 206.463 179.819 209.22 179.25 210.969C178.595 212.981 178.1 215.064 177.781 217.156C177.651 218.011 177.55 218.821 177.531 219.594C177.476 221.912 178.081 223.845 180.344 225.438C181.723 226.408 183.397 226.802 185.031 227.094C187.526 227.539 190.121 227.75 192.188 226C193.655 224.757 192.387 225.344 191.969 210C191.994 209.969 192.04 209.971 192.062 209.938C192.459 209.359 192.314 208.662 191.875 208.156C191.873 208.048 191.877 208.016 191.875 207.906C191.813 207.853 191.723 207.886 191.656 207.844C189.568 206.846 190.312 207.055 189.5 206.812C188.518 206.519 187.472 206.418 186.5 206.094C185.748 205.843 185.036 205.53 184.312 205.375ZM183.469 208.281C183.776 208.227 184.243 208.481 184.531 208.594C185.242 208.872 185.001 208.747 189.75 210.281C189.761 210.291 189.77 210.303 189.781 210.312C191.765 220.679 192.678 217.255 191.75 220.656C191.402 221.932 190.786 223.382 189.531 224C188.142 224.685 185.667 224.093 184.25 223.75C183.109 223.473 182.243 223.106 181.375 222.281C180.017 220.991 180.689 218.079 180.969 216.562C181.033 216.217 181.113 215.875 181.188 215.531C181.613 213.561 182.259 211.691 182.781 209.75C182.877 209.395 183.124 208.342 183.469 208.281Z" fill="#000000" stroke="none"/>
</g>
<g opacity="1" vectornator:blendMode="darken">
<path d="M228.166 210.862C233.917 210.862 238.881 212.064 242.831 216.652C243.726 217.691 244.353 218.939 245.011 220.143C245.57 221.164 247.639 223.249 246.477 223.313C244.862 223.403 243.89 221.363 242.697 220.272C238.752 216.663 235.107 212.575 231.618 208.525C230.765 207.535 230.396 205.642 229.094 205.522C227.757 205.399 225.335 210.737 225.136 211.315C224.08 214.377 222.987 219.576 224.459 222.7C225.529 224.97 228.204 226.561 230.764 226.117C234.33 225.497 234.379 223.27 235.075 220.495C236.108 216.381 235.9 216.933 236.146 212.945" fill="#ffffff" fill-rule="evenodd" stroke="none"/>
<path d="M229.594 204.062C228.958 203.918 228.285 204.013 227.656 204.438C226.218 205.409 225.316 207.322 224.562 208.812C223.303 211.305 222.577 214.035 222.281 216.812C222.124 218.289 222.1 219.815 222.375 221.281C223.07 224.983 226.32 227.954 230.188 227.781C230.804 227.754 231.439 227.611 232.031 227.438C235.929 226.295 236.22 222.579 237.031 219.156C237.188 218.496 237.245 217.819 237.344 217.156C237.795 217.625 238.243 218.087 238.719 218.562C239.376 219.22 239.98 219.831 240.656 220.469C241.062 220.851 241.489 221.222 241.875 221.625C242.155 221.918 242.428 222.221 242.688 222.531C243.686 223.729 245.212 225.285 246.969 224.781C247.364 224.668 247.668 224.483 247.938 224.156C249.282 222.521 246.78 220.241 246 218.812C245.527 217.946 245.06 217.075 244.469 216.281C242.235 213.283 238.927 211.171 235.344 210.188C235.283 210.171 235.217 210.172 235.156 210.156C234.67 209.602 234.138 209.089 233.656 208.531C233.295 208.114 232.859 207.654 232.562 207.156C232.16 206.48 231.851 205.711 231.312 205.125C230.823 204.592 230.229 204.207 229.594 204.062ZM229.125 207.438C229.178 207.521 229.257 207.591 229.344 207.75C229.623 208.263 229.905 208.779 230.25 209.25C229.891 209.153 229.613 209.11 229.656 209.375C229.788 210.178 229.642 209.369 228.188 209.344C227.954 209.34 227.793 209.502 227.594 209.594C228.023 208.786 228.567 208.094 229.125 207.438ZM226.875 211.375C227.095 211.92 227.5 212.364 228.125 212.375C230.509 212.54 232.128 212.743 232.938 212.844C233.463 213.393 234.049 213.901 234.469 214.531C234.676 214.843 234.433 215.283 234.406 215.656C234.34 216.599 234.154 217.488 233.938 218.406C233.697 219.424 233.459 220.451 233.219 221.469C232.749 223.462 232.26 224.476 230.062 224.594C229.61 224.618 229.119 224.539 228.688 224.406C224.397 223.083 225.114 217.703 225.906 214.312C226.045 213.72 226.197 213.174 226.375 212.594C226.496 212.199 226.716 211.782 226.875 211.375ZM229.531 212.406C229.094 212.358 230.406 212.431 230.844 212.469C231.113 212.492 231.4 212.559 231.688 212.594C230.966 212.542 230.249 212.485 229.531 212.406Z" fill="#000000" stroke="none"/>
</g>
<g opacity="1" vectornator:blendMode="darken">
<path d="M206.101 235.354C208.671 234.796 211.271 234.36 213.886 234.086" fill="#ffffff" fill-rule="evenodd" stroke="none"/>
<path d="M213.688 232.5C209.744 233.185 208.868 233.344 209.75 233.188C210.633 233.031 211.507 232.913 212.375 232.688C212.809 232.575 211.506 232.774 211.062 232.844C210.177 232.983 209.286 233.17 208.406 233.344C207.967 233.43 206.649 233.672 207.094 233.625C207.985 233.53 207.101 233.611 205.812 233.875C204.996 234.039 204.461 234.84 204.625 235.656C204.789 236.473 205.59 237.008 206.406 236.844C210.248 236.261 211.098 236.124 210.25 236.25C209.402 236.376 208.543 236.504 207.688 236.562C207.259 236.592 208.545 236.414 208.969 236.344C209.815 236.203 210.649 236.079 211.5 235.969C211.924 235.914 213.199 235.719 212.781 235.812C211.945 235.999 212.788 235.812 214.094 235.656C214.967 235.548 215.577 234.748 215.469 233.875C215.361 233.002 214.561 232.392 213.688 232.5Z" fill="#000000" stroke="none"/>
</g>
<g opacity="1" vectornator:blendMode="darken">
<path d="M198.321 262.541C198.321 265.213 198.321 267.886 198.321 270.558" fill="#ffffff" fill-rule="evenodd" stroke="none"/>
<path d="M198.312 261.031C197.48 261.031 196.812 261.698 196.812 262.531C196.802 263.526 196.819 262.892 196.812 263.531C196.818 263.197 196.816 264.197 196.812 264.531C196.81 264.748 196.782 265.143 196.781 265.219C196.779 265.33 196.783 265.451 196.781 265.562C196.777 265.893 196.786 266.232 196.781 266.562C196.768 267.231 196.756 267.894 196.75 268.562C196.747 268.897 196.713 269.897 196.719 269.562C196.735 268.56 196.723 269.56 196.719 270.562C196.719 271.442 197.433 272.156 198.312 272.156C199.192 272.156 199.906 271.442 199.906 270.562C199.885 268.558 199.913 269.189 199.906 268.562C199.903 268.228 199.912 267.897 199.906 267.562C199.89 266.56 199.855 265.534 199.844 264.531C199.84 264.197 199.838 263.197 199.844 263.531C199.86 264.533 199.846 263.533 199.844 262.531C199.844 261.698 199.145 261.031 198.312 261.031Z" fill="#000000" stroke="none"/>
</g>
<g opacity="1" vectornator:blendMode="darken">
<path d="M227.205 250.938C227.205 256.019 227.205 261.1 227.205 266.18" fill="#ffffff" fill-rule="evenodd" stroke="none"/>
<path d="M227.219 249.438C226.386 249.438 225.687 250.105 225.688 250.938C225.682 256.018 225.637 261.107 225.625 266.188C225.625 267.067 226.339 267.781 227.219 267.781C228.098 267.781 228.812 267.067 228.812 266.188C228.801 261.107 228.725 256.018 228.719 250.938C228.719 250.105 228.052 249.437 227.219 249.438Z" fill="#000000" stroke="none"/>
</g>
<g opacity="1" vectornator:blendMode="darken">
<path d="M227.205 268.8C216.73 268.8 206.658 271.139 196.253 271.762C195.649 271.798 189.261 272.322 188.759 271.762C187.894 270.796 188.334 269.028 188.929 267.876C190.092 265.624 195.906 262.573 197.964 261.065" fill="#ffffff" fill-rule="evenodd" stroke="none"/>
<path d="M198.25 259.5C197.849 259.428 197.424 259.499 197.062 259.75C196.106 260.417 195.111 261.035 194.125 261.656C191.19 263.505 187.464 265.523 186.781 269.25C186.694 269.725 186.638 270.293 186.688 270.844C186.737 271.394 186.904 271.907 187.219 272.312C187.453 272.615 187.672 272.96 188 273.156C188.362 273.373 188.802 273.464 189.219 273.531C190.3 273.705 191.406 273.592 192.5 273.562C194.657 273.504 196.821 273.278 198.969 273.094C208.405 272.285 217.723 270.396 227.219 270.312C228.052 270.305 228.726 269.614 228.719 268.781C228.712 267.948 228.02 267.274 227.188 267.281C218.47 267.353 209.933 268.931 201.281 269.781C198.616 270.043 195.926 270.247 193.25 270.375C192.432 270.414 191.599 270.442 190.781 270.438C190.476 270.436 190.18 270.424 189.875 270.406C189.872 270.36 189.842 270.296 189.844 270.25C189.853 269.928 189.932 269.617 190.031 269.312C190.315 268.442 190.87 267.866 191.562 267.281C193.809 265.385 196.468 264.045 198.875 262.375C199.597 261.873 199.783 260.879 199.281 260.156C199.03 259.795 198.651 259.572 198.25 259.5Z" fill="#000000" stroke="none"/>
</g>
<g opacity="1" vectornator:blendMode="darken">
<path d="M226.548 267.26C228.167 267.26 229.786 267.26 231.405 267.26C232.857 267.26 234.649 268.195 235.76 267.26C238.366 265.069 229.363 255.776 227.906 253.926" fill="#ffffff" fill-rule="evenodd" stroke="none"/>
<path d="M228.062 252.344C227.657 252.303 227.247 252.409 226.906 252.688C226.225 253.244 226.131 254.256 226.688 254.938C228.107 256.671 229.629 258.312 231.031 260.062C231.734 260.939 232.432 261.82 233.062 262.75C233.326 263.139 233.608 263.591 233.844 264C234.126 264.491 234.39 265.021 234.562 265.562C234.612 265.719 234.669 265.868 234.688 266.031C234.691 266.064 234.691 266.087 234.688 266.125C234.37 266.246 233.918 266.122 233.594 266.062C232.871 265.929 232.146 265.758 231.406 265.75C229.782 265.733 228.186 265.749 226.562 265.75C225.73 265.75 225.031 266.417 225.031 267.25C225.031 268.083 225.73 268.781 226.562 268.781C228.24 268.782 229.986 268.628 231.656 268.781C232.999 268.905 234.255 269.455 235.625 269.031C236.181 268.859 236.669 268.544 237.062 268.125C237.521 267.637 237.74 267.033 237.781 266.406C237.904 264.526 236.491 262.263 235.656 261C235.362 260.555 234.944 259.925 234.625 259.5C234.262 259.017 233.875 258.536 233.5 258.062C232.762 257.129 232.084 256.339 231.312 255.438C230.589 254.592 229.827 253.769 229.125 252.906C228.847 252.565 228.468 252.385 228.062 252.344Z" fill="#000000" stroke="none"/>
</g>
<g opacity="1" vectornator:blendMode="darken">
<path d="M235.677 265.922C235.677 268.453 236.517 271.127 235.677 273.514C235.288 274.619 234.416 275.727 233.309 276.11C232.042 276.548 230.646 275.784 229.307 275.715C225.753 275.534 222.033 275.626 218.486 275.913C217.287 276.01 215.665 275.371 214.897 276.297C214.057 277.309 214.897 278.926 214.897 280.24C214.897 282.723 216.121 285.528 214.897 287.687C214.32 288.703 213.055 289.684 211.901 289.505C210.647 289.31 209.722 287.969 209.215 286.806C208.248 284.584 210.784 281.384 209.215 279.537C207.846 277.925 202.285 278.471 200.697 278.388C198.381 278.267 187.493 277.253 186.345 275.052C185.261 272.972 187.7 269.834 188.568 268.384" fill="#ffffff" fill-rule="evenodd" stroke="none"/>
<path d="M235.656 264.406C234.824 264.426 234.136 265.136 234.156 265.969C234.205 267.967 234.775 270.075 234.469 272.062C234.404 272.481 234.299 272.975 234.094 273.375C233.954 273.647 233.826 273.863 233.625 274.094C232.649 275.214 231.469 274.521 230.219 274.312C229.344 274.167 228.435 274.149 227.562 274.125C224.498 274.042 221.432 274.201 218.375 274.406C217.106 274.491 215.901 273.955 214.656 274.562C214.341 274.717 214.064 274.974 213.812 275.219C212.523 276.476 213.107 278.261 213.312 279.781C213.398 280.415 213.396 281.051 213.469 281.688C213.568 282.551 213.712 283.386 213.812 284.25C213.957 285.496 213.898 287.68 212.25 287.969C211.493 288.101 210.563 286.251 210.562 285.625C210.561 284.365 211.143 283.152 211.25 281.906C211.409 280.058 210.925 278.468 209.219 277.625C206.811 276.435 203.731 276.819 201.156 276.812C199.808 276.809 198.462 276.624 197.125 276.469C195.36 276.263 193.584 276.019 191.844 275.656C191.377 275.559 190.93 275.464 190.469 275.344C189.671 275.136 188.386 274.854 187.719 274.25C187.538 274.086 187.776 273.107 187.844 272.906C188.299 271.565 189.165 270.41 189.906 269.219C190.371 268.472 190.153 267.496 189.406 267.031C188.659 266.567 187.683 266.784 187.219 267.531C185.906 269.647 183.95 272.202 184.594 274.875C185.143 277.155 187.66 277.888 189.656 278.406C193.172 279.319 196.985 279.84 200.625 279.969C202.465 280.034 204.32 279.854 206.156 280.062C206.586 280.111 207.022 280.158 207.438 280.281C207.584 280.325 207.708 280.373 207.844 280.438C207.89 280.46 207.94 280.489 207.969 280.5C208.055 280.626 208.153 280.76 208.188 280.906C208.326 281.496 208.038 282.096 207.906 282.688C207.752 283.382 207.565 284.074 207.469 284.781C207.08 287.632 209.49 291.507 212.719 291.031C215.103 290.68 216.713 288.391 216.938 286.125C217.097 284.511 216.691 282.903 216.5 281.312C216.362 280.164 216.288 279.051 216.094 277.906C216.073 277.784 216.064 277.627 216.062 277.5C216.062 277.441 216.079 277.322 216.062 277.312C216.232 277.244 216.532 277.327 216.719 277.344C217.338 277.399 217.97 277.478 218.594 277.438C219.187 277.399 219.782 277.349 220.375 277.312C223.316 277.13 226.275 277.051 229.219 277.219C230.427 277.287 231.551 277.842 232.781 277.75C236.092 277.502 237.532 273.934 237.562 271.062C237.581 269.333 237.228 267.603 237.188 265.875C237.168 265.042 236.489 264.386 235.656 264.406Z" fill="#000000" stroke="none"/>
</g>
<g opacity="1" vectornator:blendMode="darken">
<path d="M259.758 178.708C259.446 179.846 258.559 180.971 258.824 182.12C259.137 183.481 260.478 184.371 261.317 185.487C264.365 189.546 267.337 191.895 272.03 193.853C274.848 195.028 280.98 196.573 282.78 199.318C283.806 200.882 283.569 205.156 283.569 206.91C283.569 213.659 283.266 220.391 283.266 227.15C283.266 235.72 282.828 244.403 283.83 252.927C284.944 262.403 287.305 271.714 288.099 281.237" fill="#ffffff" fill-rule="evenodd" stroke="none"/>
<path d="M260.219 177.281C259.423 177.034 258.559 177.455 258.312 178.25C257.882 179.651 257.097 180.815 257.344 182.375C257.615 184.09 259.118 185.169 260.125 186.438C261.146 187.723 262.188 188.985 263.375 190.125C266.033 192.676 269.272 194.494 272.719 195.75C275.18 196.647 277.682 197.418 279.938 198.781C280.694 199.239 281.474 199.836 281.719 200.719C282.266 202.695 282.051 204.888 282.031 206.906C282.004 209.71 281.971 212.509 281.906 215.312C281.716 223.559 281.557 231.813 281.594 240.062C281.613 244.417 281.773 248.764 282.25 253.094C282.95 259.446 284.307 265.725 285.312 272.031C285.81 275.151 286.165 278.266 286.5 281.406C286.594 282.281 287.406 282.906 288.281 282.812C289.156 282.719 289.781 281.937 289.688 281.062C289.344 277.868 288.977 274.704 288.469 271.531C287.467 265.276 286.109 259.051 285.406 252.75C284.936 248.53 284.777 244.306 284.75 240.062C284.694 231.276 284.873 222.471 285.031 213.688C285.078 211.083 285.101 208.479 285.125 205.875C285.143 203.901 285.198 201.83 284.656 199.906C283.671 196.409 279.207 194.847 276.188 193.75C273.584 192.804 271.023 191.928 268.656 190.438C266.578 189.129 264.786 187.44 263.25 185.531C262.72 184.872 262.522 184.524 262 183.938C261.676 183.573 261.331 183.234 261 182.875C260.767 182.621 260.377 182.233 260.312 181.875C260.18 181.14 260.958 179.891 261.188 179.156C261.434 178.361 261.014 177.528 260.219 177.281Z" fill="#000000" stroke="none"/>
</g>
<g opacity="1" vectornator:blendMode="darken">
<path d="M152.821 186.425C152.821 187.79 152.887 193.821 152.581 194.861C151.356 199.034 146.441 199.302 144.271 202.404C142.305 205.213 140.805 211.816 140.353 215.172C137.214 238.481 141.343 262.553 141.343 285.935" fill="#ffffff" fill-rule="evenodd" stroke="none"/>
<path d="M152.812 184.906C151.98 184.908 151.311 185.605 151.312 186.438C151.315 188.452 151.348 190.455 151.281 192.469C151.24 193.707 151.214 194.744 150.469 195.75C149.452 197.121 147.757 197.833 146.344 198.688C145.083 199.45 143.966 200.292 143.062 201.469C141.877 203.013 141.224 205.117 140.656 206.938C139.933 209.256 139.36 211.634 138.969 214.031C138.52 216.787 138.272 219.592 138.062 222.375C137.802 225.837 137.663 229.312 137.625 232.781C137.587 236.25 137.666 239.719 137.781 243.188C138.126 253.562 139.014 263.881 139.469 274.25C139.64 278.146 139.701 282.069 139.75 285.969C139.761 286.848 140.495 287.543 141.375 287.531C142.255 287.52 142.949 286.786 142.938 285.906C142.886 281.974 142.831 278.055 142.656 274.125C142.238 264.748 141.454 255.377 141.031 246C140.723 239.167 140.576 232.334 140.938 225.5C141.131 221.837 141.419 218.156 142 214.531C142.423 211.894 143.023 209.241 143.906 206.719C144.386 205.349 144.95 203.797 145.969 202.719C146.733 201.91 147.768 201.363 148.719 200.812C150.627 199.708 152.536 198.542 153.562 196.5C154.447 194.739 154.278 192.696 154.312 190.781C154.339 189.325 154.346 187.894 154.344 186.438C154.342 185.605 153.645 184.905 152.812 184.906Z" fill="#000000" stroke="none"/>
</g>
<g opacity="1" vectornator:blendMode="darken">
<path d="M141.385 290.475C141.385 293.179 141.112 295.902 140.533 298.544" fill="#ffffff" fill-rule="evenodd" stroke="none"/>
<path d="M141.406 288.969C140.573 288.956 139.888 289.605 139.875 290.438C139.422 294.328 139.335 295.205 139.438 294.344C139.54 293.484 139.614 292.617 139.844 291.781C139.959 291.363 139.818 292.63 139.781 293.062C139.713 293.865 139.592 294.86 139.469 295.656C139.403 296.083 139.26 297.369 139.25 296.938C139.231 296.071 139.235 296.923 138.969 298.219C138.796 299.081 139.356 299.921 140.219 300.094C141.081 300.267 141.921 299.706 142.094 298.844C142.493 294.665 142.586 293.75 142.5 294.688C142.414 295.625 142.323 296.56 142.375 297.5C142.401 297.971 142.503 296.562 142.562 296.094C142.679 295.185 142.762 294.196 142.812 293.281C142.838 292.812 142.982 291.417 142.875 291.875C142.661 292.792 142.889 291.88 142.906 290.5C142.919 289.667 142.239 288.982 141.406 288.969Z" fill="#000000" stroke="none"/>
</g>
<g opacity="1" vectornator:blendMode="darken">
<path d="M186.61 277.652C186.61 283.367 186.61 289.081 186.61 294.796" fill="#ffffff" fill-rule="evenodd" stroke="none"/>
<path d="M186.625 276.156C185.792 276.156 185.094 276.823 185.094 277.656C185.088 283.371 185.043 289.066 185.031 294.781C185.031 295.661 185.745 296.375 186.625 296.375C187.505 296.375 188.187 295.661 188.188 294.781C188.176 289.066 188.131 283.371 188.125 277.656C188.125 276.823 187.458 276.156 186.625 276.156Z" fill="#000000" stroke="none"/>
</g>
<g opacity="1" vectornator:blendMode="darken">
<path d="M231.235 276.811C231.382 282.002 231.423 287.173 231.423 292.364" fill="#ffffff" fill-rule="evenodd" stroke="none"/>
<path d="M231.188 275.312C230.355 275.331 229.7 276.011 229.719 276.844C229.829 282.019 229.841 287.199 229.844 292.375C229.846 293.255 230.558 293.971 231.438 293.969C232.317 293.966 233.034 293.255 233.031 292.375C233.005 287.178 232.872 281.976 232.75 276.781C232.731 275.949 232.02 275.294 231.188 275.312Z" fill="#000000" stroke="none"/>
</g>
<g opacity="1" vectornator:blendMode="darken">
<path d="M185.149 292.574C169.94 293.297 156.971 304.241 145.161 313.068" fill="#ffffff" fill-rule="evenodd" stroke="none"/>
<path d="M185.062 291.062C169.201 292.023 156.363 302.622 144.188 311.781C143.485 312.311 143.346 313.329 143.875 314.031C144.14 314.383 144.534 314.6 144.938 314.656C145.341 314.713 145.774 314.608 146.125 314.344C157.739 305.578 170.072 295.02 185.25 294.094C186.081 294.043 186.707 293.3 186.656 292.469C186.606 291.637 185.894 291.012 185.062 291.062Z" fill="#000000" stroke="none"/>
</g>
<g opacity="1" vectornator:blendMode="darken">
<path d="M143.017 314.256C141.856 315.146 140.186 315.618 139.532 316.928C137.92 320.159 140.669 322.583 141.214 325.394C141.501 326.876 141.214 328.414 141.214 329.924C141.214 345.213 141.14 360.472 140.652 375.746C140.355 385.038 139.128 394.212 138.377 403.453C137.596 413.067 138.247 422.828 137.357 432.403C136.886 437.468 135.532 442.541 134.71 447.56C133.688 453.791 128.011 470.007 131.526 474.883C132.539 476.287 137.704 479.684 138.966 480.557C143.721 483.848 148.767 487.997 154.369 489.791C160.592 491.784 167.905 491.529 174.351 491.529" fill="#ffffff" fill-rule="evenodd" stroke="none"/>
<path d="M143.25 312.781C142.869 312.719 142.463 312.788 142.125 313.031C140.722 314.043 139.155 314.575 138.219 316.156C137.181 317.909 137.433 320.105 138.188 321.906C138.719 323.174 139.449 324.366 139.75 325.719C139.992 326.807 139.764 328.002 139.719 329.094C139.684 329.935 139.689 331.095 139.688 331.844C139.654 346.469 139.571 361.067 139.125 375.688C138.793 386.564 137.009 397.353 136.562 408.219C136.233 416.237 136.525 424.248 135.812 432.25C135.59 434.748 135.113 437.23 134.625 439.688C133.98 442.937 133.456 446.24 132.719 449.469C131.702 453.922 130.429 458.318 129.594 462.812C128.932 466.373 128.137 470.919 129.5 474.406C130.233 476.28 131.876 477.465 133.438 478.625C135.338 480.036 137.319 481.32 139.25 482.688C143.442 485.658 147.578 488.894 152.406 490.781C159.337 493.49 167.042 493.141 174.344 493.125C175.223 493.123 175.94 492.411 175.938 491.531C175.935 490.652 175.224 489.935 174.344 489.938C167.46 489.955 160.106 490.363 153.562 487.812C148.983 486.027 145.037 482.907 141.062 480.094C139.026 478.652 136.929 477.318 134.938 475.812C134.113 475.189 133.023 474.501 132.562 473.531C131.974 472.292 131.938 470.807 131.969 469.469C132.025 466.972 132.474 464.474 132.969 462.031C133.778 458.037 134.878 454.128 135.781 450.156C136.522 446.897 137.041 443.592 137.688 440.312C138.194 437.745 138.677 435.141 138.906 432.531C139.65 424.082 139.282 415.589 139.688 407.125C139.966 401.319 140.672 395.535 141.219 389.75C141.718 384.462 142.092 379.186 142.219 373.875C142.446 364.322 142.63 354.774 142.688 345.219C142.718 340.126 142.676 335.03 142.719 329.938C142.735 328.009 143.049 326.134 142.469 324.25C141.928 322.492 139.738 319.643 140.844 317.688C141.438 316.636 142.952 316.152 143.906 315.469C144.583 314.983 144.736 314.052 144.25 313.375C144.007 313.037 143.631 312.844 143.25 312.781Z" fill="#000000" stroke="none"/>
</g>
<g opacity="1" vectornator:blendMode="darken">
<path d="M174.835 490.552C180.615 484.854 187.793 479.535 191.832 472.322C202.106 453.971 203.908 432.905 206.449 412.479C207.316 405.506 209.104 398.909 209.469 391.858" fill="#ffffff" fill-rule="evenodd" stroke="none"/>
<path d="M209.594 390.281C208.717 390.21 207.946 390.842 207.875 391.719C207.69 394.005 207.499 396.294 207.156 398.562C206.64 401.98 205.923 405.369 205.375 408.781C204.915 411.649 204.6 414.524 204.25 417.406C202.657 430.528 201.126 443.78 197.031 456.406C195.24 461.928 193.016 467.459 190 472.438C185.917 479.178 179.377 484.068 173.781 489.469C173.482 489.758 173.319 490.145 173.312 490.531C173.306 490.917 173.461 491.294 173.75 491.594C174.039 491.893 174.427 492.056 174.812 492.062C175.198 492.069 175.575 491.914 175.875 491.625C181.674 486.032 188.354 480.976 192.594 474C195.737 468.827 198.059 463.082 199.938 457.344C204.264 444.128 205.878 430.243 207.562 416.5C207.859 414.084 208.112 411.685 208.5 409.281C209.052 405.86 209.761 402.458 210.281 399.031C210.637 396.69 210.87 394.359 211.062 392C211.134 391.123 210.471 390.353 209.594 390.281Z" fill="#000000" stroke="none"/>
</g>
<g opacity="1" vectornator:blendMode="darken">
<path d="M228.061 297.508C240.906 299.715 251.294 309.831 262.995 315.087C277.012 321.382 292.349 324.503 306.373 330.814C319.234 336.602 329.943 343.26 344.154 345.273" fill="#ffffff" fill-rule="evenodd" stroke="none"/>
<path d="M228.344 296.031C227.527 295.87 226.755 296.402 226.594 297.219C226.433 298.036 226.964 298.839 227.781 299C229.832 299.403 231.817 299.9 233.781 300.625C243.552 304.23 251.561 311.237 260.875 315.75C272.969 321.61 286.212 324.55 298.719 329.344C309.513 333.482 319.488 339.509 330.375 343.406C334.788 344.986 339.277 346.121 343.906 346.844C344.776 346.979 345.584 346.401 345.719 345.531C345.854 344.662 345.276 343.823 344.406 343.688C339.975 343 335.663 341.947 331.438 340.438C325.209 338.212 319.296 335.202 313.344 332.344C308.915 330.217 304.438 328.156 299.844 326.406C291.434 323.202 282.713 320.836 274.219 317.875C269.657 316.284 265.082 314.559 260.781 312.344C253.431 308.559 246.878 303.408 239.438 299.781C235.888 298.051 232.217 296.794 228.344 296.031Z" fill="#000000" stroke="none"/>
</g>
<g opacity="1" vectornator:blendMode="darken">
<path d="M236.54 364.431C244.116 369.529 251.827 372.776 259.971 376.802C274.093 383.784 288.538 390.038 303.167 395.857C311.828 399.302 323.812 402.192 330.629 408.98C337.65 415.971 341.201 433.692 343.244 442.885C343.924 445.946 343.976 449.153 344.93 452.14C345.365 453.501 345.326 456.308 346.728 456.032C348.41 455.7 348.423 453.013 348.881 451.362C349.34 449.702 349.14 447.922 349.443 446.227C350.949 437.804 355.501 429.544 357.939 421.237C359.925 414.468 360.493 407.763 361.94 400.906C363.878 391.719 366.365 382.594 367.383 373.236C367.936 368.158 369.08 359.758 366.553 355.091C364.231 350.804 356.525 346.169 352.975 343.616C343.719 336.961 333.501 331.831 324.211 325.273" fill="#ffffff" fill-rule="evenodd" stroke="none"/>
<path d="M323.906 323.719C323.506 323.796 323.152 324.01 322.906 324.375C322.414 325.104 322.583 326.102 323.312 326.594C324.889 327.658 326.467 328.745 328.062 329.781C333.631 333.4 339.419 336.669 345.031 340.219C347.755 341.942 350.38 343.763 353.031 345.594C355.989 347.636 359.04 349.596 361.75 351.969C363.027 353.086 364.341 354.333 365.156 355.844C366.469 358.277 366.56 361.315 366.531 364C366.504 366.588 366.254 369.149 365.969 371.719C365.707 374.074 365.41 376.447 365 378.781C363.613 386.683 361.588 394.44 360.062 402.312C358.869 408.469 358.227 414.752 356.438 420.781C354.976 425.705 352.87 430.42 351.062 435.219C349.75 438.704 348.519 442.283 347.906 445.969C347.689 447.276 347.718 448.594 347.562 449.906C347.48 450.601 347.291 451.284 347.156 451.969C347.066 452.429 346.866 452.867 346.75 453.344C346.735 453.259 346.733 453.171 346.719 453.094C346.46 451.656 345.999 450.286 345.75 448.844C345.484 447.297 345.321 445.735 345.062 444.188C344.758 442.363 344.309 440.554 343.906 438.75C342.36 431.819 340.705 424.834 338 418.25C336.301 414.115 334.153 410.02 330.781 407C326.144 402.846 320.147 400.429 314.375 398.312C311.561 397.28 308.749 396.32 305.938 395.281C303.361 394.329 300.794 393.284 298.25 392.25C284.809 386.785 271.643 380.774 258.594 374.438C251.358 370.924 244.124 367.566 237.375 363.156C236.678 362.701 235.737 362.897 235.281 363.594C234.826 364.291 235.021 365.232 235.719 365.688C242.89 370.374 250.606 373.899 258.281 377.656C271.028 383.897 283.979 389.711 297.125 395.062C299.699 396.11 302.269 397.161 304.875 398.125C307.688 399.166 310.528 400.122 313.344 401.156C318.741 403.138 324.383 405.387 328.719 409.281C332.521 412.697 334.609 417.731 336.281 422.438C337.919 427.048 339.148 431.8 340.25 436.562C340.818 439.017 341.402 441.463 341.875 443.938C342.218 445.73 342.377 447.546 342.688 449.344C342.964 450.946 343.454 452.497 343.75 454.094C344.02 455.549 344.469 457.22 346.156 457.562C347.749 457.886 349.04 456.511 349.562 455.188C349.896 454.341 350.045 453.45 350.219 452.562C350.4 451.64 350.635 450.753 350.719 449.812C350.818 448.705 350.783 447.599 350.969 446.5C352.183 439.324 355.642 432.707 358.062 425.906C359.945 420.617 361.053 415.186 361.969 409.656C362.436 406.832 362.93 404.024 363.5 401.219C364.749 395.068 366.323 388.98 367.5 382.812C368.18 379.253 368.693 375.664 369.094 372.062C369.516 368.261 369.934 364.418 369.594 360.594C369.425 358.703 369.098 356.772 368.312 355.031C367.336 352.865 365.608 351.139 363.844 349.594C361.206 347.283 358.264 345.32 355.375 343.344C352.503 341.379 349.661 339.393 346.719 337.531C341.119 333.988 335.338 330.738 329.781 327.125C328.202 326.098 326.655 324.992 325.094 323.938C324.729 323.691 324.306 323.641 323.906 323.719Z" fill="#000000" stroke="none"/>
</g>
<g opacity="1" vectornator:blendMode="darken">
<path d="M317.525 338.941C332.785 338.941 349.282 342.408 360.647 352.866" fill="#ffffff" fill-rule="evenodd" stroke="none"/>
<path d="M317.531 337.438C316.698 337.43 316.039 338.105 316.031 338.938C316.024 339.77 316.667 340.43 317.5 340.438C330.016 340.554 343.002 342.672 353.719 349.531C355.818 350.875 357.728 352.416 359.594 354.062C359.924 354.353 360.343 354.494 360.75 354.469C361.157 354.443 361.553 354.236 361.844 353.906C362.135 353.576 362.276 353.157 362.25 352.75C362.224 352.343 362.018 351.947 361.688 351.656C359.197 349.467 356.592 347.511 353.719 345.844C342.8 339.507 329.984 337.545 317.531 337.438Z" fill="#000000" stroke="none"/>
</g>
<g opacity="1" vectornator:blendMode="darken">
<path d="M189.26 336.095C190.078 358.308 189.506 380.599 189.506 402.83C189.506 415.095 190.892 428.439 189.159 440.673C187.457 452.696 182.453 464.761 177.971 475.962C175.479 482.189 173.777 488.584 171.121 494.762" fill="#ffffff" fill-rule="evenodd" stroke="none"/>
<path d="M189.219 334.594C188.386 334.62 187.723 335.324 187.75 336.156C188.461 358.389 187.93 380.607 187.969 402.844C187.991 415.842 189.495 429.027 187.375 441.938C185.465 453.571 180.807 464.479 176.5 475.375C174.048 481.577 172.167 487.974 169.656 494.156C169.325 494.971 169.716 495.919 170.531 496.25C171.346 496.581 172.263 496.19 172.594 495.375C175.105 489.182 176.984 482.744 179.438 476.531C183.826 465.419 188.539 454.304 190.469 442.438C192.599 429.344 191.079 415.991 191.031 402.812C190.951 380.547 191.498 358.324 190.781 336.062C190.755 335.23 190.051 334.567 189.219 334.594Z" fill="#000000" stroke="none"/>
</g>
<g opacity="1" vectornator:blendMode="darken">
<path d="M234.16 351.418C237.898 351.543 241.692 351.273 245.366 351.969C250.167 352.879 253.785 355.705 257.943 358.007C267.15 363.102 276.222 368.153 285.309 373.467C294.224 378.681 302.926 384.202 311.801 389.465C313.474 390.457 319.535 393.661 321.585 395.426C324.623 398.041 327.07 401.274 329.913 404.099C336.204 410.347 342.464 414.568 345.769 423.067" fill="#ffffff" fill-rule="evenodd" stroke="none"/>
<path d="M234.188 349.906C233.355 349.89 232.673 350.542 232.656 351.375C232.64 352.208 233.292 352.921 234.125 352.938C238.103 353.016 242.269 352.665 246.156 353.688C249.806 354.648 252.933 356.85 256.156 358.719C260.656 361.328 265.245 363.797 269.781 366.344C281.468 372.905 292.932 379.84 304.375 386.812C307.096 388.471 309.783 390.16 312.562 391.719C315.289 393.248 318.15 394.696 320.594 396.656C321.824 397.644 322.903 398.874 323.969 400.031C325.569 401.769 327.11 403.547 328.781 405.219C332.613 409.054 337.006 412.413 340.344 416.719C341.998 418.852 343.26 421.162 344.281 423.656C344.615 424.47 345.561 424.865 346.375 424.531C347.189 424.197 347.584 423.283 347.25 422.469C346.117 419.71 344.675 417.141 342.844 414.781C339.417 410.367 334.964 406.9 331.031 402.969C328.172 400.111 325.73 396.723 322.562 394.188C319.765 391.948 316.49 390.316 313.375 388.562C310.497 386.942 307.699 385.181 304.875 383.469C300.094 380.57 295.333 377.644 290.531 374.781C283.793 370.764 276.97 366.895 270.125 363.062C265.978 360.741 261.801 358.505 257.688 356.125C254.219 354.118 250.861 351.812 246.938 350.781C242.804 349.696 238.418 349.989 234.188 349.906Z" fill="#000000" stroke="none"/>
</g>
<g opacity="1" vectornator:blendMode="darken">
<path d="M245.573 331.179C245.025 344.207 244.337 357.787 245.818 370.719C246.765 378.981 248.801 387.084 250.001 395.313C252.985 415.773 255.895 436.23 258.849 456.692C260.49 468.058 262.575 479.942 263.24 491.461C263.343 493.252 263.191 495.049 263.24 496.842C263.289 498.625 264.351 500.601 263.534 502.187C261.362 506.401 244.253 503.419 240.414 503.032C215.855 500.555 189.288 495.809 171.109 477.63" fill="#ffffff" fill-rule="evenodd" stroke="none"/>
<path d="M245.625 329.688C244.793 329.652 244.098 330.293 244.062 331.125C243.546 343.27 242.934 355.46 244 367.594C244.827 377.013 247.087 386.199 248.5 395.531C251.337 414.261 253.906 433.03 256.594 451.781C258.352 464.049 260.543 476.32 261.469 488.688C261.582 490.206 261.731 491.726 261.719 493.25C261.707 494.647 261.575 496.076 261.719 497.469C261.859 498.834 262.556 500.254 262.062 501.594C261.96 501.872 260.589 502.331 260.125 502.438C258.104 502.9 255.962 502.881 253.906 502.812C253.131 502.787 252.21 502.742 251.438 502.688C250.611 502.63 249.824 502.549 249 502.469C246.275 502.203 243.564 501.805 240.844 501.5C229.382 500.214 217.935 498.774 206.812 495.594C197.49 492.929 188.429 489.11 180.5 483.469C177.55 481.37 174.806 479.029 172.219 476.5C171.589 475.885 170.584 475.902 169.969 476.531C169.661 476.846 169.526 477.249 169.531 477.656C169.536 478.064 169.685 478.474 170 478.781C173.09 481.798 176.389 484.546 179.969 486.969C188.329 492.627 197.79 496.43 207.5 499.062C218.222 501.97 229.221 503.444 240.25 504.594C243.488 504.931 246.691 505.445 249.938 505.719C251.218 505.827 252.528 505.927 253.812 505.969C256.837 506.066 262.072 506.214 264.344 503.75C264.878 503.171 265.209 502.433 265.344 501.656C265.615 500.095 265.007 498.643 264.844 497.125C264.673 495.543 264.877 493.901 264.844 492.312C264.767 488.581 264.278 484.863 263.875 481.156C263.03 473.376 261.733 465.647 260.594 457.906C257.514 436.979 254.678 416.007 251.5 395.094C250.458 388.238 248.923 381.479 247.875 374.625C247.343 371.145 246.971 367.638 246.75 364.125C246.062 353.18 246.63 342.193 247.094 331.25C247.129 330.418 246.457 329.723 245.625 329.688Z" fill="#000000" stroke="none"/>
</g>
<g opacity="1" vectornator:blendMode="darken">
<path d="M259.211 499.21C246.837 495.364 235.754 488.735 223.036 485.429C213.849 483.041 204.763 480.953 195.621 478.373C187.143 475.98 179.736 474.139 172.756 468.45" fill="#ffffff" fill-rule="evenodd" stroke="none"/>
<path d="M172.562 466.875C172.158 466.922 171.773 467.124 171.5 467.469C170.954 468.158 171.092 469.141 171.781 469.688C174.101 471.523 176.533 473.126 179.188 474.438C183.927 476.779 189.086 478.175 194.156 479.594C200.199 481.284 206.253 482.835 212.344 484.344C215.762 485.19 219.235 485.953 222.625 486.906C226.746 488.065 230.775 489.442 234.75 491.031C242.763 494.235 250.516 498.017 258.75 500.656C259.543 500.911 260.402 500.449 260.656 499.656C260.911 498.863 260.449 498.036 259.656 497.781C251.491 495.162 243.816 491.378 235.875 488.188C231.803 486.552 227.69 485.138 223.469 483.938C219.674 482.858 215.795 481.992 211.969 481.031C205.941 479.517 199.918 477.94 193.938 476.25C189.408 474.97 184.828 473.69 180.594 471.594C178.14 470.379 175.893 468.886 173.75 467.188C173.405 466.914 172.967 466.828 172.562 466.875Z" fill="#000000" stroke="none"/>
</g>
<g opacity="1" vectornator:blendMode="darken">
<path d="M197.586 474.685C195.925 476.111 195.832 478.87 195.981 481.054C196.1 482.806 196.586 485.737 198.342 485.763C200.328 485.792 201.404 483.001 202.106 481.142C202.735 479.475 203.127 477.256 202.106 475.796C201.216 474.525 198.763 473.675 197.586 474.685Z" fill="#ffffff" fill-rule="evenodd" stroke="none"/>
<path d="M197.594 473.188C197.297 473.186 197.037 473.359 196.781 473.531C196.739 473.464 196.731 473.444 196.688 473.375C196.572 473.454 196.557 473.586 196.469 473.688C195.378 475.131 195.583 474.635 195.25 475.312C194.637 476.558 194.378 478.221 194.375 479.906C194.372 481.591 194.642 483.299 195.125 484.594C196.177 487.413 198.973 488.208 201.125 486.094C201.924 485.309 202.483 484.293 202.938 483.281C203.184 482.732 203.301 482.477 203.25 482.219C203.159 481.762 202.38 481.132 200.906 479.344C200.685 480.305 200.37 481.327 200.062 482.031C199.73 482.793 199.169 484.053 198.375 484.219C198.315 484.231 198.012 483.645 197.969 483.531C197.709 482.844 197.604 482.103 197.531 481.375C197.469 480.759 197.676 480.617 198.594 476.125C198.564 476.083 198.53 476.043 198.5 476C198.594 475.992 198.521 476.008 198.594 476C198.64 475.773 198.606 476.002 198.656 475.75C199.248 475.164 199.242 474.217 198.656 473.625C198.363 473.329 197.98 473.189 197.594 473.188ZM198.594 476C198.572 476.108 198.615 476.022 198.594 476.125C199.486 477.402 200.308 478.618 200.906 479.344C201.251 477.843 201.242 476.387 199.531 475.906C199.214 475.817 199.328 475.922 198.594 476Z" fill="#000000" stroke="none"/>
</g>
<g opacity="1" vectornator:blendMode="darken">
<path d="M205.57 501.758C205.851 500.242 206.907 498.67 206.414 497.209C205.904 495.701 204.09 495.031 202.929 493.941" fill="#ffffff" fill-rule="evenodd" stroke="none"/>
<path d="M202.781 492.344C202.375 492.382 201.968 492.599 201.688 492.938C201.407 493.276 201.306 493.688 201.344 494.094C201.382 494.5 201.567 494.876 201.906 495.156C202.999 498.288 203.286 499.255 203 498.312C202.747 497.48 202.462 496.579 202.594 495.719C202.639 495.424 203.068 496.079 203.312 496.25C203.533 496.404 203.75 496.531 203.969 496.688C205.276 497.621 205.105 498.219 204.594 499.719C204.514 499.954 204.384 500.327 204.312 500.562C204.267 500.713 204.267 501.136 204.188 501C203.69 500.15 204.188 501.012 204.094 501.438C203.913 502.251 204.437 503.038 205.25 503.219C206.063 503.399 206.851 502.907 207.031 502.094C205.482 497.409 205.081 496.029 205.5 497.406C205.95 498.887 206.521 500.325 207.125 501.75C207.167 501.849 207.187 501.54 207.219 501.438C207.255 501.322 207.273 501.208 207.312 501.094C207.452 500.687 207.631 500.289 207.75 499.875C208.051 498.824 208.179 497.894 207.906 496.812C207.625 495.695 206.74 494.79 205.844 494.125C205.614 493.955 205.39 493.791 205.156 493.625C204.946 493.476 204.508 492.931 204.531 493.188C204.663 494.621 204.509 493.198 203.938 492.719C203.599 492.438 203.187 492.306 202.781 492.344Z" fill="#000000" stroke="none"/>
</g>
<g opacity="1" vectornator:blendMode="darken">
<path d="M249.41 494.488C250.153 508.74 249.642 523.115 249.642 537.385" fill="#ffffff" fill-rule="evenodd" stroke="none"/>
<path d="M249.344 492.969C248.512 493.007 247.868 493.73 247.906 494.562C248.549 508.831 248.14 523.099 248.062 537.375C248.058 538.255 248.745 538.965 249.625 538.969C250.505 538.973 251.246 538.286 251.25 537.406C251.277 530.242 251.348 523.069 251.344 515.906C251.34 508.744 251.235 501.566 250.906 494.406C250.868 493.574 250.176 492.931 249.344 492.969Z" fill="#000000" stroke="none"/>
</g>
<g opacity="1" vectornator:blendMode="darken">
<path d="M178.801 488.922C178.575 494.671 178.554 500.392 178.554 506.144" fill="#ffffff" fill-rule="evenodd" stroke="none"/>
<path d="M178.844 487.406C178.011 487.378 177.31 488.042 177.281 488.875C177.08 494.632 176.985 500.396 176.969 506.156C176.968 507.036 177.683 507.749 178.562 507.75C179.442 507.751 180.156 507.036 180.156 506.156C180.149 500.43 180.124 494.692 180.312 488.969C180.341 488.136 179.676 487.435 178.844 487.406Z" fill="#000000" stroke="none"/>
</g>
<g opacity="1" vectornator:blendMode="darken">
<path d="M215.914 286.388C215.914 323.69 215.914 360.992 215.914 398.294C215.914 413.098 215.47 427.955 215.914 442.751C216.629 466.572 216.894 490.324 216.894 514.182" fill="#ffffff" fill-rule="evenodd" stroke="none"/>
<path d="M215.906 284.875C215.073 284.875 214.406 285.542 214.406 286.375C214.404 321.928 214.398 357.509 214.375 393.062C214.366 407.168 214.004 421.27 214.188 435.375C214.323 445.781 214.718 456.188 214.906 466.594C215.194 482.459 215.286 498.32 215.312 514.188C215.314 515.067 216.026 515.783 216.906 515.781C217.786 515.78 218.502 515.067 218.5 514.188C218.469 498.302 218.355 482.414 218.062 466.531C217.871 456.131 217.489 445.713 217.344 435.312C217.147 421.222 217.478 407.154 217.469 393.062C217.445 357.509 217.44 321.929 217.438 286.375C217.438 285.542 216.739 284.875 215.906 284.875Z" fill="#000000" stroke="none"/>
</g>
<g opacity="1" vectornator:blendMode="darken">
<path d="M220.076 471.442C223.447 470.821 223.334 467.093 222.071 463.238C221.6 461.802 220.83 459.386 219.338 459.622C217.606 459.896 216.475 462.356 216.584 464.106C216.753 466.809 217.413 471.934 220.076 471.442Z" fill="#ffffff" fill-rule="evenodd" stroke="none"/>
<path d="M218.719 458.156C217.263 458.516 216.215 459.812 215.625 461.125C215.357 461.722 215.197 462.014 215.219 462.312C215.276 463.089 216.558 464.403 219.125 470.438C218.751 470.793 218.47 471.242 218.594 471.781C218.762 472.514 219.46 472.925 220.188 472.875C220.214 472.944 220.223 472.961 220.25 473.031C220.416 473.014 220.511 472.876 220.656 472.812C221.823 472.37 221.808 472.495 222.344 472.125C223.9 471.051 224.41 469.364 224.406 467.562C224.403 465.761 223.891 463.849 223.406 462.375C222.709 460.254 221.502 457.469 218.719 458.156ZM219.5 461.188C219.543 461.235 219.557 461.292 219.594 461.344C219.708 461.505 219.819 461.699 219.906 461.875C220.195 462.453 220.43 463.072 220.625 463.688C220.834 464.345 220.551 464.323 219.781 469.656C218.903 468.193 218.829 468.332 218.688 467.781C218.386 466.606 218.003 464.649 218.188 463.406C218.273 462.829 218.483 462.264 218.812 461.781C218.934 461.604 219.074 461.439 219.25 461.312C219.294 461.281 219.443 461.229 219.5 461.188Z" fill="#000000" stroke="none"/>
</g>
<g opacity="1" vectornator:blendMode="darken">
<path d="M225.66 385.617C225.66 381.141 225.66 376.666 225.66 372.19" fill="#ffffff" fill-rule="evenodd" stroke="none"/>
<path d="M225.656 370.594C224.777 370.594 224.063 371.308 224.062 372.188C224.074 376.663 224.15 381.149 224.156 385.625C224.156 386.458 224.823 387.125 225.656 387.125C226.489 387.125 227.156 386.458 227.156 385.625C227.162 381.149 227.238 376.663 227.25 372.188C227.25 371.308 226.536 370.594 225.656 370.594Z" fill="#000000" stroke="none"/>
</g>
<g opacity="1" vectornator:blendMode="darken">
<path d="M225.66 367.95C225.66 366.541 225.66 365.131 225.66 363.721" fill="#ffffff" fill-rule="evenodd" stroke="none"/>
<path d="M225.656 362.125C224.777 362.125 224.063 362.839 224.062 363.719C224.084 364.776 224.056 364.473 224.062 364.781C223.71 364.781 224.083 365.491 224.094 365.844C224.105 366.196 223.804 366.906 224.156 366.906C224.509 366.906 224.146 366.88 224.156 367.938C224.156 368.77 224.823 369.469 225.656 369.469C226.489 369.469 227.156 368.77 227.156 367.938C227.177 366.896 227.181 367.219 227.188 366.906C227.54 366.906 227.208 366.196 227.219 365.844C227.23 365.491 227.603 364.781 227.25 364.781C226.897 364.781 227.241 364.776 227.25 363.719C227.25 362.839 226.536 362.125 225.656 362.125Z" fill="#000000" stroke="none"/>
</g>
<g opacity="1" vectornator:blendMode="darken">
<path d="M225.66 359.709C225.66 356.211 225.66 352.714 225.66 349.216" fill="#ffffff" fill-rule="evenodd" stroke="none"/>
<path d="M225.656 347.625C224.777 347.625 224.063 348.339 224.062 349.219C224.074 352.716 224.15 356.221 224.156 359.719C224.156 360.552 224.823 361.219 225.656 361.219C226.489 361.219 227.156 360.552 227.156 359.719C227.162 356.221 227.238 352.716 227.25 349.219C227.25 348.339 226.536 347.625 225.656 347.625Z" fill="#000000" stroke="none"/>
</g>
<g opacity="1" vectornator:blendMode="darken">
<path d="M225.66 351.209C225.66 343.1 225.66 334.992 225.66 326.884" fill="#ffffff" fill-rule="evenodd" stroke="none"/>
<path d="M225.656 325.281C224.777 325.281 224.063 325.995 224.062 326.875C224.074 334.983 224.15 343.11 224.156 351.219C224.156 352.052 224.823 352.719 225.656 352.719C226.489 352.719 227.156 352.052 227.156 351.219C227.162 343.11 227.238 334.983 227.25 326.875C227.25 325.995 226.536 325.281 225.656 325.281Z" fill="#000000" stroke="none"/>
</g>
<g opacity="1" vectornator:blendMode="darken">
<path d="M223.907 357.587C223.907 355.702 223.907 353.817 223.907 351.931" fill="#ffffff" fill-rule="evenodd" stroke="none"/>
<path d="M223.906 350.344C223.027 350.344 222.312 351.058 222.312 351.938C222.334 353.351 222.306 352.931 222.312 353.344C221.841 353.344 222.333 354.279 222.344 354.75C222.355 355.221 221.904 356.188 222.375 356.188C222.846 356.188 222.396 356.18 222.406 357.594C222.406 358.427 223.073 359.094 223.906 359.094C224.739 359.094 225.406 358.427 225.406 357.594C225.427 356.195 225.431 356.604 225.438 356.188C225.909 356.188 225.458 355.221 225.469 354.75C225.48 354.279 225.971 353.344 225.5 353.344C225.029 353.344 225.491 353.351 225.5 351.938C225.5 351.058 224.786 350.344 223.906 350.344Z" fill="#000000" stroke="none"/>
</g>
<g opacity="1" vectornator:blendMode="darken">
<path d="M223.907 349.01C223.907 330.901 223.907 312.792 223.907 294.683" fill="#ffffff" fill-rule="evenodd" stroke="none"/>
<path d="M223.906 293.094C223.027 293.094 222.312 293.808 222.312 294.688C222.324 312.796 222.4 330.891 222.406 349C222.406 349.833 223.073 350.531 223.906 350.531C224.739 350.531 225.406 349.833 225.406 349C225.412 330.891 225.488 312.796 225.5 294.688C225.5 293.808 224.786 293.094 223.906 293.094Z" fill="#000000" stroke="none"/>
</g>
<g opacity="1" vectornator:blendMode="darken">
<path d="M223.907 294.904C223.907 289.173 223.907 283.443 223.907 277.713" fill="#ffffff" fill-rule="evenodd" stroke="none"/>
<path d="M223.906 276.125C223.027 276.125 222.312 276.839 222.312 277.719C222.324 283.449 222.4 289.176 222.406 294.906C222.406 295.739 223.073 296.406 223.906 296.406C224.739 296.406 225.406 295.739 225.406 294.906C225.412 289.176 225.488 283.449 225.5 277.719C225.5 276.839 224.786 276.125 223.906 276.125Z" fill="#000000" stroke="none"/>
</g>
<g opacity="1" vectornator:blendMode="darken">
<path d="M236.606 150.574C236.606 144.901 236.606 139.227 236.606 133.554" fill="#ffffff" fill-rule="evenodd" stroke="none"/>
<path d="M236.594 131.969C235.714 131.969 235 132.683 235 133.562C235.012 139.236 235.088 144.889 235.094 150.562C235.094 151.395 235.761 152.094 236.594 152.094C237.427 152.094 238.125 151.395 238.125 150.562C238.131 144.889 238.176 139.236 238.188 133.562C238.188 132.683 237.474 131.969 236.594 131.969Z" fill="#000000" stroke="none"/>
</g>
<g opacity="1" vectornator:blendMode="darken">
<path d="M236.606 128.005C236.606 113.938 236.606 99.8714 236.606 85.8045" fill="#ffffff" fill-rule="evenodd" stroke="none"/>
<path d="M236.594 84.2188C235.714 84.2188 235 84.9328 235 85.8125C235.012 99.8794 235.088 113.933 235.094 128C235.094 128.833 235.761 129.5 236.594 129.5C237.427 129.5 238.125 128.833 238.125 128C238.131 113.933 238.176 99.8794 238.188 85.8125C238.188 84.9328 237.474 84.2187 236.594 84.2188Z" fill="#000000" stroke="none"/>
</g>
<g opacity="1" vectornator:blendMode="darken">
<path d="M236.606 85.1332C236.606 67.3149 236.606 49.4965 236.606 31.6781" fill="#ffffff" fill-rule="evenodd" stroke="none"/>
<path d="M236.594 30.0938C235.714 30.0938 235 30.8078 235 31.6875C235.012 49.5059 235.088 67.3066 235.094 85.125C235.094 85.9579 235.761 86.6562 236.594 86.6562C237.427 86.6562 238.125 85.9579 238.125 85.125C238.131 67.3066 238.176 49.5059 238.188 31.6875C238.188 30.8078 237.474 30.0938 236.594 30.0938Z" fill="#000000" stroke="none"/>
</g>
<g opacity="1" vectornator:blendMode="darken">
<path d="M236.606 31.6781C236.606 10.83 236.606-10.0181 236.606-30.8662" fill="#ffffff" fill-rule="evenodd" stroke="none"/>
<path d="M236.594-32.4688C235.714-32.4688 235-31.7547 235-30.875C235.012-10.0269 235.088 10.8394 235.094 31.6875C235.094 32.5204 235.761 33.1875 236.594 33.1875C237.427 33.1875 238.125 32.5204 238.125 31.6875C238.131 10.8394 238.176-10.0269 238.188-30.875C238.188-31.7547 237.474-32.4687 236.594-32.4688Z" fill="#000000" stroke="none"/>
</g>
<g opacity="1" vectornator:blendMode="darken">
<path d="M442.197 521.457C440.811 481.486 438.601 441.683 438.601 401.702" fill="#ffffff" fill-rule="evenodd" stroke="none"/>
<path d="M438.594 400.125C437.714 400.129 436.996 400.839 437 401.719C437.06 415.046 437.268 428.365 437.656 441.688C438.432 468.305 439.722 494.889 440.688 521.5C440.718 522.332 441.418 522.999 442.25 522.969C443.082 522.939 443.749 522.239 443.719 521.406C442.282 481.508 440.342 441.619 440.188 401.688C440.184 400.808 439.474 400.121 438.594 400.125Z" fill="#000000" stroke="none"/>
</g>
<g opacity="1" vectornator:blendMode="darken">
<path d="M438.601 401.46C438.601 304.49 438.601 207.52 438.601 110.55" fill="#ffffff" fill-rule="evenodd" stroke="none"/>
<path d="M438.594 108.969C437.714 108.969 437 109.683 437 110.562C437.012 207.533 437.088 304.499 437.094 401.469C437.094 402.302 437.761 402.969 438.594 402.969C439.427 402.969 440.094 402.302 440.094 401.469C440.1 304.499 440.176 207.533 440.188 110.562C440.188 109.683 439.473 108.969 438.594 108.969Z" fill="#000000" stroke="none"/>
</g>
</g>
</svg>
