<?xml version="1.0" encoding="UTF-8" standalone="no"?>
<!DOCTYPE svg PUBLIC "-//W3C//DTD SVG 1.1//EN" "http://www.w3.org/Graphics/SVG/1.1/DTD/svg11.dtd">

<!-- Created with Vectornator (http://vectornator.io/) -->
<svg height="100%" stroke-miterlimit="10" style="fill-rule:nonzero;clip-rule:evenodd;stroke-linecap:round;stroke-linejoin:round;" version="1.1" viewBox="0 0 792 612" width="100%" xml:space="preserve" xmlns="http://www.w3.org/2000/svg" xmlns:vectornator="http://vectornator.io" xmlns:xlink="http://www.w3.org/1999/xlink">
<metadata>
<vectornator:setting key="IsTimeLapseWatermarkDisabled" value="false"/>
<vectornator:setting key="UndoHistoryDisabled" value="true"/>
<vectornator:setting key="VNDimensionsVisible" value="true"/>
<vectornator:setting key="VNSnapToGuides" value="true"/>
<vectornator:setting key="WDCMYKEnabledKey" value="false"/>
<vectornator:setting key="WDDisplayWhiteBackground" value="false"/>
<vectornator:setting key="WDDynamicGuides" value="false"/>
<vectornator:setting key="WDGuidesVisible" value="true"/>
<vectornator:setting key="WDIsolateActiveLayer" value="false"/>
<vectornator:setting key="WDOutlineMode" value="false"/>
<vectornator:setting key="WDRulersVisible" value="true"/>
<vectornator:setting key="WDSnapToEdges" value="false"/>
<vectornator:setting key="WDSnapToGrid" value="false"/>
<vectornator:setting key="WDSnapToPoints" value="false"/>
<vectornator:setting key="WDUnits" value="Inches"/>
</metadata>
<defs>
<clipPath id="TextBounds">
<rect height="1" width="23.7891" x="384.105" y="291"/>
</clipPath>
<radialGradient cx="396" cy="305.82" gradientTransform="matrix(1 0 0 1 0 0)" gradientUnits="userSpaceOnUse" id="RadialGradient" r="11.8945">
<stop offset="0" stop-color="#00ffe1"/>
<stop offset="1" stop-color="#000000"/>
</radialGradient>
<clipPath id="TextBounds_2">
<rect height="1" width="23.7891" x="377.134" y="297.237"/>
</clipPath>
<radialGradient cx="441.496" cy="326.547" gradientTransform="matrix(1 0 0 1 -6.97122 6.23741)" gradientUnits="userSpaceOnUse" id="RadialGradient_2" r="39.48">
<stop offset="0" stop-color="#00ffe1"/>
<stop offset="1" stop-color="#000000"/>
</radialGradient>
<linearGradient gradientTransform="matrix(1 0 0 1 294.053 170.561)" gradientUnits="userSpaceOnUse" id="LinearGradient" x1="32.002" x2="32.002" y1="7" y2="57.645">
<stop offset="0" stop-color="#1a6dff"/>
<stop offset="1" stop-color="#c822ff"/>
</linearGradient>
<linearGradient gradientTransform="matrix(1 0 0 1 294.053 170.561)" gradientUnits="userSpaceOnUse" id="LinearGradient_2" x1="32" x2="32" y1="19.75" y2="44.755">
<stop offset="0" stop-color="#6dc7ff"/>
<stop offset="1" stop-color="#e6abff"/>
</linearGradient>
<linearGradient gradientTransform="matrix(1 0 0 1 294.053 170.561)" gradientUnits="userSpaceOnUse" id="LinearGradient_3" x1="32.002" x2="32.002" y1="7" y2="57.645">
<stop offset="0" stop-color="#1a6dff"/>
<stop offset="1" stop-color="#c822ff"/>
</linearGradient>
<linearGradient gradientTransform="matrix(1 0 0 1 294.053 170.561)" gradientUnits="userSpaceOnUse" id="LinearGradient_4" x1="32" x2="32" y1="19.75" y2="44.755">
<stop offset="0" stop-color="#6dc7ff"/>
<stop offset="1" stop-color="#e6abff"/>
</linearGradient>
<linearGradient gradientTransform="matrix(1 0 0 1 294.053 170.561)" gradientUnits="userSpaceOnUse" id="LinearGradient_5" x1="32.002" x2="32.002" y1="7" y2="57.645">
<stop offset="0" stop-color="#1a6dff"/>
<stop offset="1" stop-color="#c822ff"/>
</linearGradient>
<linearGradient gradientTransform="matrix(1 0 0 1 294.053 170.561)" gradientUnits="userSpaceOnUse" id="LinearGradient_6" x1="32" x2="32" y1="19.75" y2="44.755">
<stop offset="0" stop-color="#6dc7ff"/>
<stop offset="1" stop-color="#e6abff"/>
</linearGradient>
<linearGradient gradientTransform="matrix(1 0 0 1 463.931 251.281)" gradientUnits="userSpaceOnUse" id="LinearGradient_7" x1="32.002" x2="32.002" y1="7" y2="57.645">
<stop offset="0" stop-color="#1a6dff"/>
<stop offset="1" stop-color="#c822ff"/>
</linearGradient>
<linearGradient gradientTransform="matrix(1 0 0 1 463.931 251.281)" gradientUnits="userSpaceOnUse" id="LinearGradient_8" x1="32" x2="32" y1="19.75" y2="44.755">
<stop offset="0" stop-color="#6dc7ff"/>
<stop offset="1" stop-color="#e6abff"/>
</linearGradient>
<linearGradient gradientTransform="matrix(1 0 0 1 151.326 356.583)" gradientUnits="userSpaceOnUse" id="LinearGradient_9" x1="32.002" x2="32.002" y1="7" y2="57.645">
<stop offset="0" stop-color="#1a6dff"/>
<stop offset="1" stop-color="#c822ff"/>
</linearGradient>
<linearGradient gradientTransform="matrix(1 0 0 1 151.326 356.583)" gradientUnits="userSpaceOnUse" id="LinearGradient_10" x1="32" x2="32" y1="19.75" y2="44.755">
<stop offset="0" stop-color="#6dc7ff"/>
<stop offset="1" stop-color="#e6abff"/>
</linearGradient>
<clipPath id="TextBounds_3">
<rect height="1.10072" width="22.4" x="273.82" y="313.705"/>
</clipPath>
<clipPath id="TextBounds_4">
<rect height="1.83453" width="22.4" x="421.317" y="388.921"/>
</clipPath>
<radialGradient cx="432.517" cy="389.838" gradientTransform="matrix(1 0 0 1 0 0)" gradientUnits="userSpaceOnUse" id="RadialGradient_3" r="11.2">
<stop offset="0" stop-color="#00ffe1"/>
<stop offset="1" stop-color="#000000"/>
</radialGradient>
<clipPath id="TextBounds_5">
<rect height="4.03597" width="22.4" x="478.554" y="293.709"/>
</clipPath>
<radialGradient cx="489.754" cy="295.727" gradientTransform="matrix(1 0 0 1 0 0)" gradientUnits="userSpaceOnUse" id="RadialGradient_4" r="11.2">
<stop offset="0" stop-color="#00ffe1"/>
<stop offset="1" stop-color="#000000"/>
</radialGradient>
<clipPath id="TextBounds_6">
<rect height="0.733813" width="22.4" x="489.928" y="349.112"/>
</clipPath>
<radialGradient cx="501.128" cy="349.478" gradientTransform="matrix(1 0 0 1 0 0)" gradientUnits="userSpaceOnUse" id="RadialGradient_5" r="11.2">
<stop offset="0" stop-color="#00ffe1"/>
<stop offset="1" stop-color="#000000"/>
</radialGradient>
<clipPath id="TextBounds_7">
<rect height="1.83453" width="22.4" x="376.187" y="406.716"/>
</clipPath>
<radialGradient cx="387.387" cy="407.633" gradientTransform="matrix(1 0 0 1 0 0)" gradientUnits="userSpaceOnUse" id="RadialGradient_6" r="11.2">
<stop offset="0" stop-color="#00ffe1"/>
<stop offset="1" stop-color="#000000"/>
</radialGradient>
<clipPath id="TextBounds_8">
<rect height="0.366906" width="22.4" x="429.388" y="456.065"/>
</clipPath>
<radialGradient cx="440.588" cy="456.248" gradientTransform="matrix(1 0 0 1 0 0)" gradientUnits="userSpaceOnUse" id="RadialGradient_7" r="11.2">
<stop offset="0" stop-color="#00ffe1"/>
<stop offset="1" stop-color="#000000"/>
</radialGradient>
</defs>
<clipPath id="ArtboardFrame">
<rect height="612" width="792" x="0" y="0"/>
</clipPath>
<g clip-path="url(#ArtboardFrame)" id="Layer-2" vectornator:layerName="Layer 2">
<g fill="url(#RadialGradient)" opacity="1" stroke="none"/>
<g fill="url(#RadialGradient_2)" opacity="1" stroke="none"/>
<g opacity="1">
<path d="M340.153 227.561C339.641 227.561 339.127 227.436 338.651 227.185L326.519 220.774C326.225 220.62 325.878 220.62 325.588 220.774L313.454 227.185C312.367 227.759 311.073 227.668 310.076 226.948C309.08 226.227 308.59 225.025 308.797 223.812L311.1 210.311C311.165 209.924 311.037 209.53 310.758 209.256L301.019 199.714C300.145 198.858 299.837 197.602 300.216 196.438C300.596 195.274 301.584 194.441 302.796 194.264L316.235 192.301C316.627 192.243 316.965 191.997 317.14 191.641L323.173 179.354C323.718 178.248 324.821 177.561 326.053 177.561C326.053 177.561 326.053 177.561 326.054 177.561C327.285 177.561 328.388 178.248 328.931 179.354L334.963 191.639C335.139 191.996 335.479 192.243 335.872 192.301L349.315 194.265C350.525 194.441 351.512 195.273 351.892 196.436C352.271 197.599 351.964 198.854 351.09 199.709L341.346 209.256C341.066 209.53 340.939 209.924 341.004 210.31L343.308 223.812C343.516 225.024 343.026 226.226 342.03 226.948C341.469 227.354 340.813 227.561 340.153 227.561ZM326.053 218.658C326.533 218.658 327.015 218.774 327.453 219.007L339.586 225.418C340 225.636 340.476 225.605 340.857 225.328C341.238 225.053 341.418 224.612 341.338 224.149L339.034 210.646C338.857 209.614 339.199 208.56 339.947 207.828L349.69 198.282C350.022 197.956 350.134 197.498 349.991 197.056C349.846 196.615 349.486 196.311 349.026 196.243L335.584 194.279C334.539 194.128 333.635 193.47 333.168 192.52L327.136 180.235C326.928 179.813 326.524 179.561 326.053 179.561L326.053 179.561C325.582 179.561 325.177 179.814 324.969 180.237L318.936 192.524C318.47 193.472 317.569 194.129 316.525 194.281L303.085 196.243C302.624 196.31 302.262 196.615 302.117 197.058C301.974 197.501 302.086 197.961 302.419 198.287L312.157 207.828C312.905 208.56 313.247 209.614 313.07 210.647L310.767 224.148C310.688 224.612 310.869 225.052 311.248 225.329C311.63 225.604 312.105 225.636 312.519 225.418L324.653 219.007C325.091 218.774 325.572 218.658 326.053 218.658Z" fill="url(#LinearGradient)" fill-rule="evenodd" opacity="1" stroke="none"/>
<path d="M326.962 212.446L332.823 215.433C333.654 215.856 334.628 215.179 334.47 214.288L333.275 207.531C333.212 207.174 333.332 206.81 333.596 206.561L338.714 201.724C339.382 201.093 339.01 200 338.084 199.87L331.032 198.876C330.662 198.824 330.343 198.6 330.179 198.277L327.072 192.172C326.649 191.34 325.46 191.34 325.037 192.172L321.929 198.277C321.765 198.6 321.445 198.824 321.076 198.876L314.024 199.869C313.098 199.999 312.727 201.092 313.394 201.723L318.52 206.567C318.778 206.811 318.897 207.169 318.835 207.519L317.638 214.287C317.48 215.178 318.455 215.855 319.285 215.432L325.146 212.445C325.715 212.155 326.391 212.155 326.962 212.446Z" fill="url(#LinearGradient_2)" fill-rule="evenodd" opacity="1" stroke="none"/>
<path d="M340.153 227.561C339.641 227.561 339.127 227.436 338.651 227.185L326.519 220.774C326.225 220.62 325.878 220.62 325.588 220.774L313.454 227.185C312.367 227.759 311.073 227.668 310.076 226.948C309.08 226.227 308.59 225.025 308.797 223.812L311.1 210.311C311.165 209.924 311.037 209.53 310.758 209.256L301.019 199.714C300.145 198.858 299.837 197.602 300.216 196.438C300.596 195.274 301.584 194.441 302.796 194.264L316.235 192.301C316.627 192.243 316.965 191.997 317.14 191.641L323.173 179.354C323.718 178.248 324.821 177.561 326.053 177.561C326.053 177.561 326.053 177.561 326.054 177.561C327.285 177.561 328.388 178.248 328.931 179.354L334.963 191.639C335.139 191.996 335.479 192.243 335.872 192.301L349.315 194.265C350.525 194.441 351.512 195.273 351.892 196.436C352.271 197.599 351.964 198.854 351.09 199.709L341.346 209.256C341.066 209.53 340.939 209.924 341.004 210.31L343.308 223.812C343.516 225.024 343.026 226.226 342.03 226.948C341.469 227.354 340.813 227.561 340.153 227.561ZM326.053 218.658C326.533 218.658 327.015 218.774 327.453 219.007L339.586 225.418C340 225.636 340.476 225.605 340.857 225.328C341.238 225.053 341.418 224.612 341.338 224.149L339.034 210.646C338.857 209.614 339.199 208.56 339.947 207.828L349.69 198.282C350.022 197.956 350.134 197.498 349.991 197.056C349.846 196.615 349.486 196.311 349.026 196.243L335.584 194.279C334.539 194.128 333.635 193.47 333.168 192.52L327.136 180.235C326.928 179.813 326.524 179.561 326.053 179.561L326.053 179.561C325.582 179.561 325.177 179.814 324.969 180.237L318.936 192.524C318.47 193.472 317.569 194.129 316.525 194.281L303.085 196.243C302.624 196.31 302.262 196.615 302.117 197.058C301.974 197.501 302.086 197.961 302.419 198.287L312.157 207.828C312.905 208.56 313.247 209.614 313.07 210.647L310.767 224.148C310.688 224.612 310.869 225.052 311.248 225.329C311.63 225.604 312.105 225.636 312.519 225.418L324.653 219.007C325.091 218.774 325.572 218.658 326.053 218.658Z" fill="url(#LinearGradient_3)" fill-rule="evenodd" opacity="1" stroke="none"/>
<path d="M326.962 212.446L332.823 215.433C333.654 215.856 334.628 215.179 334.47 214.288L333.275 207.531C333.212 207.174 333.332 206.81 333.596 206.561L338.714 201.724C339.382 201.093 339.01 200 338.084 199.87L331.032 198.876C330.662 198.824 330.343 198.6 330.179 198.277L327.072 192.172C326.649 191.34 325.46 191.34 325.037 192.172L321.929 198.277C321.765 198.6 321.445 198.824 321.076 198.876L314.024 199.869C313.098 199.999 312.727 201.092 313.394 201.723L318.52 206.567C318.778 206.811 318.897 207.169 318.835 207.519L317.638 214.287C317.48 215.178 318.455 215.855 319.285 215.432L325.146 212.445C325.715 212.155 326.391 212.155 326.962 212.446Z" fill="url(#LinearGradient_4)" fill-rule="evenodd" opacity="1" stroke="none"/>
<path d="M340.153 227.561C339.641 227.561 339.127 227.436 338.651 227.185L326.519 220.774C326.225 220.62 325.878 220.62 325.588 220.774L313.454 227.185C312.367 227.759 311.073 227.668 310.076 226.948C309.08 226.227 308.59 225.025 308.797 223.812L311.1 210.311C311.165 209.924 311.037 209.53 310.758 209.256L301.019 199.714C300.145 198.858 299.837 197.602 300.216 196.438C300.596 195.274 301.584 194.441 302.796 194.264L316.235 192.301C316.627 192.243 316.965 191.997 317.14 191.641L323.173 179.354C323.718 178.248 324.821 177.561 326.053 177.561C326.053 177.561 326.053 177.561 326.054 177.561C327.285 177.561 328.388 178.248 328.931 179.354L334.963 191.639C335.139 191.996 335.479 192.243 335.872 192.301L349.315 194.265C350.525 194.441 351.512 195.273 351.892 196.436C352.271 197.599 351.964 198.854 351.09 199.709L341.346 209.256C341.066 209.53 340.939 209.924 341.004 210.31L343.308 223.812C343.516 225.024 343.026 226.226 342.03 226.948C341.469 227.354 340.813 227.561 340.153 227.561ZM326.053 218.658C326.533 218.658 327.015 218.774 327.453 219.007L339.586 225.418C340 225.636 340.476 225.605 340.857 225.328C341.238 225.053 341.418 224.612 341.338 224.149L339.034 210.646C338.857 209.614 339.199 208.56 339.947 207.828L349.69 198.282C350.022 197.956 350.134 197.498 349.991 197.056C349.846 196.615 349.486 196.311 349.026 196.243L335.584 194.279C334.539 194.128 333.635 193.47 333.168 192.52L327.136 180.235C326.928 179.813 326.524 179.561 326.053 179.561L326.053 179.561C325.582 179.561 325.177 179.814 324.969 180.237L318.936 192.524C318.47 193.472 317.569 194.129 316.525 194.281L303.085 196.243C302.624 196.31 302.262 196.615 302.117 197.058C301.974 197.501 302.086 197.961 302.419 198.287L312.157 207.828C312.905 208.56 313.247 209.614 313.07 210.647L310.767 224.148C310.688 224.612 310.869 225.052 311.248 225.329C311.63 225.604 312.105 225.636 312.519 225.418L324.653 219.007C325.091 218.774 325.572 218.658 326.053 218.658Z" fill="url(#LinearGradient_5)" fill-rule="evenodd" opacity="1" stroke="none"/>
<path d="M326.962 212.446L332.823 215.433C333.654 215.856 334.628 215.179 334.47 214.288L333.275 207.531C333.212 207.174 333.332 206.81 333.596 206.561L338.714 201.724C339.382 201.093 339.01 200 338.084 199.87L331.032 198.876C330.662 198.824 330.343 198.6 330.179 198.277L327.072 192.172C326.649 191.34 325.46 191.34 325.037 192.172L321.929 198.277C321.765 198.6 321.445 198.824 321.076 198.876L314.024 199.869C313.098 199.999 312.727 201.092 313.394 201.723L318.52 206.567C318.778 206.811 318.897 207.169 318.835 207.519L317.638 214.287C317.48 215.178 318.455 215.855 319.285 215.432L325.146 212.445C325.715 212.155 326.391 212.155 326.962 212.446Z" fill="url(#LinearGradient_6)" fill-rule="evenodd" opacity="1" stroke="none"/>
</g>
<g opacity="1">
<path d="M510.031 308.281C509.519 308.281 509.005 308.156 508.529 307.905L496.397 301.494C496.103 301.34 495.756 301.34 495.466 301.494L483.332 307.905C482.245 308.479 480.951 308.388 479.954 307.668C478.958 306.947 478.468 305.745 478.675 304.532L480.978 291.031C481.043 290.644 480.915 290.25 480.636 289.976L470.897 280.434C470.023 279.578 469.715 278.322 470.094 277.158C470.474 275.994 471.462 275.161 472.674 274.984L486.113 273.021C486.505 272.963 486.843 272.717 487.018 272.361L493.051 260.074C493.596 258.968 494.699 258.281 495.931 258.281C495.931 258.281 495.931 258.281 495.932 258.281C497.163 258.281 498.266 258.968 498.809 260.074L504.841 272.359C505.017 272.716 505.357 272.963 505.75 273.021L519.193 274.985C520.403 275.161 521.39 275.993 521.77 277.156C522.149 278.319 521.842 279.574 520.968 280.429L511.224 289.976C510.944 290.25 510.817 290.644 510.882 291.03L513.186 304.532C513.394 305.744 512.904 306.946 511.908 307.668C511.347 308.074 510.691 308.281 510.031 308.281ZM495.931 299.378C496.411 299.378 496.893 299.494 497.331 299.727L509.464 306.138C509.878 306.356 510.354 306.325 510.735 306.048C511.116 305.773 511.296 305.332 511.216 304.869L508.912 291.366C508.735 290.334 509.077 289.28 509.825 288.548L519.568 279.002C519.9 278.676 520.012 278.218 519.869 277.776C519.724 277.335 519.364 277.031 518.904 276.963L505.462 274.999C504.417 274.848 503.513 274.19 503.046 273.24L497.014 260.955C496.806 260.533 496.402 260.281 495.931 260.281L495.931 260.281C495.46 260.281 495.055 260.534 494.847 260.957L488.814 273.244C488.348 274.192 487.447 274.849 486.403 275.001L472.963 276.963C472.502 277.03 472.14 277.335 471.995 277.778C471.852 278.221 471.964 278.681 472.297 279.007L482.035 288.548C482.783 289.28 483.125 290.334 482.948 291.367L480.645 304.868C480.566 305.332 480.747 305.772 481.126 306.049C481.508 306.324 481.983 306.356 482.397 306.138L494.531 299.727C494.969 299.494 495.45 299.378 495.931 299.378Z" fill="url(#LinearGradient_7)" fill-rule="evenodd" opacity="1" stroke="none"/>
<path d="M496.84 293.166L502.701 296.153C503.532 296.576 504.506 295.899 504.348 295.008L503.153 288.251C503.09 287.894 503.21 287.53 503.474 287.281L508.592 282.444C509.26 281.813 508.888 280.72 507.962 280.59L500.91 279.596C500.54 279.544 500.221 279.32 500.057 278.997L496.95 272.892C496.527 272.06 495.338 272.06 494.915 272.892L491.807 278.997C491.643 279.32 491.323 279.544 490.954 279.596L483.902 280.589C482.976 280.719 482.605 281.812 483.272 282.443L488.398 287.287C488.656 287.531 488.775 287.889 488.713 288.239L487.516 295.007C487.358 295.898 488.333 296.575 489.163 296.152L495.024 293.165C495.593 292.875 496.269 292.875 496.84 293.166Z" fill="url(#LinearGradient_8)" fill-rule="evenodd" opacity="1" stroke="none"/>
</g>
<g opacity="1">
<path d="M197.426 413.583C196.914 413.583 196.4 413.458 195.924 413.207L183.792 406.796C183.498 406.642 183.151 406.642 182.861 406.796L170.727 413.207C169.64 413.781 168.346 413.69 167.349 412.97C166.353 412.249 165.863 411.047 166.07 409.834L168.373 396.333C168.438 395.946 168.31 395.552 168.031 395.278L158.292 385.736C157.418 384.88 157.11 383.624 157.489 382.46C157.869 381.296 158.857 380.463 160.069 380.286L173.508 378.323C173.9 378.265 174.238 378.019 174.413 377.663L180.446 365.376C180.991 364.27 182.094 363.583 183.326 363.583C183.326 363.583 183.326 363.583 183.327 363.583C184.558 363.583 185.661 364.27 186.204 365.376L192.236 377.661C192.412 378.018 192.752 378.265 193.145 378.323L206.588 380.287C207.798 380.463 208.785 381.295 209.165 382.458C209.544 383.621 209.237 384.876 208.363 385.731L198.619 395.278C198.339 395.552 198.212 395.946 198.277 396.332L200.581 409.834C200.789 411.046 200.299 412.248 199.303 412.97C198.742 413.376 198.086 413.583 197.426 413.583ZM183.326 404.68C183.806 404.68 184.288 404.796 184.726 405.029L196.859 411.44C197.273 411.658 197.749 411.627 198.13 411.35C198.511 411.075 198.691 410.634 198.611 410.171L196.307 396.668C196.13 395.636 196.472 394.582 197.22 393.85L206.963 384.304C207.295 383.978 207.407 383.52 207.264 383.078C207.119 382.637 206.759 382.333 206.299 382.265L192.857 380.301C191.812 380.15 190.908 379.492 190.441 378.542L184.409 366.257C184.201 365.835 183.797 365.583 183.326 365.583L183.326 365.583C182.855 365.583 182.45 365.836 182.242 366.259L176.209 378.546C175.743 379.494 174.842 380.151 173.798 380.303L160.358 382.265C159.897 382.332 159.535 382.637 159.39 383.08C159.247 383.523 159.359 383.983 159.692 384.309L169.43 393.85C170.178 394.582 170.52 395.636 170.343 396.669L168.04 410.17C167.961 410.634 168.142 411.074 168.521 411.351C168.903 411.626 169.378 411.658 169.792 411.44L181.926 405.029C182.364 404.796 182.845 404.68 183.326 404.68Z" fill="url(#LinearGradient_9)" fill-rule="evenodd" opacity="1" stroke="none"/>
<path d="M184.235 398.468L190.096 401.455C190.927 401.878 191.901 401.201 191.743 400.31L190.548 393.553C190.485 393.196 190.605 392.832 190.869 392.583L195.987 387.746C196.655 387.115 196.283 386.022 195.357 385.892L188.305 384.898C187.935 384.846 187.616 384.622 187.452 384.299L184.345 378.194C183.922 377.362 182.733 377.362 182.31 378.194L179.202 384.299C179.038 384.622 147.239 395.106 146.87 395.158L171.297 385.891C170.371 386.021 170 387.114 170.667 387.745L175.793 392.589C176.051 392.833 176.17 393.191 176.108 393.541L174.911 400.309C174.753 401.2 175.728 401.877 176.558 401.454L182.419 398.467C182.988 398.177 183.664 398.177 184.235 398.468Z" fill="url(#LinearGradient_10)" fill-rule="evenodd" opacity="1" stroke="none"/>
</g>
<path d="M-45.155 80.3525L-24.8417 80.3525L-24.8417 88.4245L-45.155 88.4245L-45.155 80.3525Z" fill="none" fill-rule="evenodd" opacity="1" stroke="none"/>
<path d="M224.154 220.878L261.212 220.878L261.212 227.849L224.154 227.849L224.154 220.878Z" fill="none" fill-rule="evenodd" opacity="1" stroke="none"/>
<path d="M262.68 177.583L263.413 177.583L263.413 188.59L262.68 188.59L262.68 177.583Z" fill="none" fill-rule="evenodd" opacity="1" stroke="none"/>
<path d="M513.043 329.849L530.655 312.604L514.144 302.698" fill="none" fill-rule="evenodd" opacity="1" stroke="#c6169f" stroke-linecap="round" stroke-linejoin="round" stroke-width="10"/>
<path clip-path="url(#TextBounds_3)" d="M275.941 365.197L278.332 365.197L283.394 357.709L282 358.447L282.961 358.447L287.461 365.197L289.992 365.197L283.769 356.068L284.273 357.697L284.273 356.76L290.121 348.287L287.719 348.287L282.644 355.846L284.039 355.096L283.078 355.096L278.555 348.287L276.012 348.287L281.707 356.654L281.707 357.592L282.211 355.963L275.941 365.197Z" fill="#25b0d0" fill-rule="evenodd" opacity="1" stroke="none"/>
<path d="M484.791 326.914C494.135 333.143 502.573 342.664 507.54 352.597" fill="#25b0d0" fill-rule="evenodd" opacity="1" stroke="#6800ff" stroke-linecap="round" stroke-linejoin="round" stroke-width="8"/>
<path d="M504.971 331.317C509.296 322.666 493.886 347.249 489.561 355.899" fill="#25b0d0" fill-rule="evenodd" opacity="1" stroke="#6800ff" stroke-linecap="round" stroke-linejoin="round" stroke-width="8"/>
<path d="M383.158 189.691C382.556 189.691 398.495 210.824 402.604 208.77" fill="#25b0d0" fill-rule="evenodd" opacity="1" stroke="#6800ff" stroke-linecap="round" stroke-linejoin="round" stroke-width="8"/>
<path d="M410.676 191.892C424.51 184.975 386.148 248.654 393.065 234.82" fill="#25b0d0" fill-rule="evenodd" opacity="1" stroke="#6800ff" stroke-linecap="round" stroke-linejoin="round" stroke-width="8"/>
<path d="M220.252 356.633C217.276 356.633 229.425 357 232.727 357C268.809 357 222.82 364.81 222.82 379.014C222.82 388.435 260.492 378.281 251.072 378.281" fill="#25b0d0" fill-rule="evenodd" opacity="1" stroke="#6800ff" stroke-linecap="round" stroke-linejoin="round" stroke-width="8"/>
<g fill="url(#RadialGradient_3)" opacity="1" stroke="none">
<path clip-path="url(#TextBounds_4)" d="M428.85 411.772L430.959 411.772L430.959 396.761L436.312 396.761L436.312 394.862L423.496 394.862L423.496 396.761L428.85 396.761L428.85 411.772Z" fill-rule="evenodd"/>
<path clip-path="url(#TextBounds_4)" d="M429.286 440.645C429.965 440.645 430.591 440.553 431.167 440.368C431.742 440.183 432.252 439.925 432.695 439.594C433.139 439.264 433.503 438.883 433.787 438.452C434.071 438.021 434.264 437.561 434.367 437.074L434.39 436.961L432.38 436.961L432.343 437.067C432.227 437.4 432.032 437.7 431.759 437.968C431.486 438.236 431.144 438.448 430.735 438.604C430.326 438.76 429.859 438.839 429.333 438.839C428.593 438.839 427.951 438.675 427.408 438.348C426.865 438.021 426.446 437.55 426.151 436.936C425.855 436.321 425.708 435.581 425.708 434.715L425.708 433.925C425.708 433.012 425.858 432.242 426.157 431.616C426.457 430.99 426.867 430.517 427.386 430.198C427.905 429.879 428.492 429.719 429.146 429.719C429.8 429.719 430.379 429.871 430.883 430.175C431.388 430.478 431.783 430.941 432.071 431.562C432.358 432.184 432.502 432.971 432.502 433.925L432.502 434.715L433.529 433.236L424.667 433.236L424.667 434.836L434.543 434.836L434.543 434.077C434.543 432.852 434.327 431.775 433.895 430.848C433.463 429.922 432.845 429.201 432.04 428.685C431.235 428.17 430.274 427.912 429.157 427.912C428.042 427.912 427.072 428.182 426.246 428.72C425.42 429.259 424.779 430.01 424.324 430.971C423.869 431.933 423.641 433.048 423.641 434.314L423.641 434.326C423.641 435.608 423.867 436.722 424.319 437.669C424.771 438.616 425.419 439.349 426.264 439.868C427.108 440.386 428.115 440.645 429.286 440.645Z" fill-rule="evenodd"/>
<path clip-path="url(#TextBounds_4)" d="M423.285 469.054L425.551 469.054L428.503 464.39L428.576 464.39L431.507 469.054L433.792 469.054L429.684 462.837L433.829 456.785L431.553 456.785L428.646 461.379L428.574 461.379L425.631 456.785L423.334 456.785L427.466 462.919L423.285 469.054Z" fill-rule="evenodd"/>
<path clip-path="url(#TextBounds_4)" d="M428.302 497.903C428.505 497.903 428.706 497.893 428.904 497.873C429.103 497.853 429.271 497.833 429.409 497.815L429.409 496.147C429.305 496.157 429.194 496.167 429.078 496.178C428.962 496.189 428.836 496.194 428.702 496.194C428.135 496.194 427.711 496.071 427.43 495.823C427.148 495.576 427.008 495.119 427.008 494.454L427.008 487.113L429.409 487.113L429.409 485.426L427.008 485.426L427.008 482.137L424.898 482.137L424.898 485.426L423.079 485.426L423.079 487.113L424.898 487.113L424.898 494.557C424.898 495.728 425.178 496.579 425.738 497.108C426.297 497.638 427.152 497.903 428.302 497.903Z" fill-rule="evenodd"/>
</g>
<g fill="url(#RadialGradient_4)" opacity="1" stroke="none">
<path clip-path="url(#TextBounds_5)" d="M486.087 316.56L488.196 316.56L488.196 301.548L493.55 301.548L493.55 299.65L480.734 299.65L480.734 301.548L486.087 301.548L486.087 316.56Z" fill-rule="evenodd"/>
<path clip-path="url(#TextBounds_5)" d="M486.524 345.433C487.202 345.433 487.829 345.34 488.404 345.156C488.979 344.971 489.489 344.713 489.933 344.382C490.377 344.051 490.741 343.671 491.024 343.239C491.308 342.808 491.501 342.349 491.604 341.862L491.628 341.749L489.618 341.749L489.58 341.855C489.464 342.188 489.27 342.488 488.996 342.756C488.723 343.024 488.382 343.236 487.973 343.392C487.564 343.548 487.096 343.626 486.571 343.626C485.831 343.626 485.189 343.463 484.646 343.136C484.102 342.809 483.683 342.338 483.388 341.724C483.093 341.109 482.945 340.369 482.945 339.502L482.945 338.713C482.945 337.8 483.095 337.03 483.395 336.404C483.695 335.778 484.104 335.305 484.623 334.986C485.142 334.667 485.729 334.507 486.383 334.507C487.037 334.507 487.616 334.659 488.121 334.962C488.625 335.266 489.021 335.729 489.308 336.35C489.595 336.971 489.739 337.759 489.739 338.713L489.739 339.502L490.766 338.024L481.904 338.024L481.904 339.624L491.78 339.624L491.78 338.865C491.78 337.639 491.564 336.563 491.132 335.636C490.701 334.709 490.082 333.988 489.277 333.473C488.472 332.958 487.511 332.7 486.395 332.7C485.28 332.7 484.309 332.969 483.483 333.508C482.657 334.047 482.017 334.797 481.561 335.759C481.106 336.721 480.878 337.835 480.878 339.102L480.878 339.113C480.878 340.395 481.105 341.51 481.557 342.457C482.009 343.404 482.657 344.137 483.501 344.655C484.345 345.174 485.353 345.433 486.524 345.433Z" fill-rule="evenodd"/>
<path clip-path="url(#TextBounds_5)" d="M480.523 373.841L482.789 373.841L485.741 369.177L485.813 369.177L488.744 373.841L491.029 373.841L486.921 367.625L491.066 361.573L488.791 361.573L485.883 366.167L485.811 366.167L482.869 361.573L480.572 361.573L484.703 367.707L480.523 373.841Z" fill-rule="evenodd"/>
<path clip-path="url(#TextBounds_5)" d="M485.539 402.691C485.743 402.691 485.943 402.681 486.142 402.661C486.34 402.64 486.508 402.621 486.646 402.602L486.646 400.935C486.542 400.944 486.432 400.955 486.316 400.966C486.199 400.977 486.074 400.982 485.939 400.982C485.372 400.982 484.948 400.858 484.667 400.611C484.386 400.363 484.245 399.907 484.245 399.241L484.245 391.901L486.646 391.901L486.646 390.214L484.245 390.214L484.245 386.925L482.136 386.925L482.136 390.214L480.316 390.214L480.316 391.901L482.136 391.901L482.136 399.345C482.136 400.516 482.416 401.366 482.975 401.896C483.535 402.426 484.39 402.691 485.539 402.691Z" fill-rule="evenodd"/>
</g>
<g fill="url(#RadialGradient_5)" opacity="1" stroke="none">
<path clip-path="url(#TextBounds_6)" d="M497.461 371.963L499.57 371.963L499.57 356.951L504.924 356.951L504.924 355.053L492.108 355.053L492.108 356.951L497.461 356.951L497.461 371.963Z" fill-rule="evenodd"/>
<path clip-path="url(#TextBounds_6)" d="M497.898 400.836C498.576 400.836 499.203 400.743 499.778 400.558C500.354 400.373 500.863 400.116 501.307 399.785C501.751 399.454 502.115 399.073 502.398 398.642C502.682 398.211 502.876 397.752 502.979 397.265L503.002 397.152L500.992 397.152L500.954 397.257C500.839 397.591 500.644 397.891 500.371 398.159C500.097 398.427 499.756 398.639 499.347 398.795C498.938 398.951 498.47 399.029 497.945 399.029C497.205 399.029 496.563 398.866 496.02 398.539C495.476 398.211 495.057 397.741 494.762 397.126C494.467 396.512 494.319 395.772 494.319 394.905L494.319 394.116C494.319 393.202 494.469 392.433 494.769 391.807C495.069 391.181 495.478 390.708 495.997 390.389C496.516 390.069 497.103 389.91 497.757 389.91C498.411 389.91 498.991 390.062 499.495 390.365C499.999 390.669 500.395 391.131 500.682 391.753C500.969 392.374 501.113 393.162 501.113 394.116L501.113 394.905L502.14 393.427L493.279 393.427L493.279 395.027L503.154 395.027L503.154 394.268C503.154 393.042 502.938 391.966 502.507 391.039C502.075 390.112 501.456 389.391 500.651 388.876C499.846 388.361 498.885 388.103 497.769 388.103C496.654 388.103 495.683 388.372 494.857 388.911C494.031 389.45 493.391 390.2 492.935 391.162C492.48 392.124 492.253 393.238 492.253 394.505L492.253 394.516C492.253 395.798 492.479 396.913 492.931 397.86C493.383 398.807 494.031 399.54 494.875 400.058C495.719 400.577 496.727 400.836 497.898 400.836Z" fill-rule="evenodd"/>
<path clip-path="url(#TextBounds_6)" d="M491.897 429.244L494.163 429.244L497.115 424.58L497.187 424.58L500.118 429.244L502.403 429.244L498.295 423.028L502.441 416.976L500.165 416.976L497.258 421.57L497.185 421.57L494.243 416.976L491.946 416.976L496.077 423.11L491.897 429.244Z" fill-rule="evenodd"/>
<path clip-path="url(#TextBounds_6)" d="M496.914 458.094C497.117 458.094 497.317 458.084 497.516 458.063C497.714 458.043 497.883 458.024 498.02 458.005L498.02 456.338C497.916 456.347 497.806 456.357 497.69 456.368C497.573 456.379 497.448 456.385 497.313 456.385C496.746 456.385 496.322 456.261 496.041 456.014C495.76 455.766 495.619 455.31 495.619 454.644L495.619 447.304L498.02 447.304L498.02 445.617L495.619 445.617L495.619 442.328L493.51 442.328L493.51 445.617L491.69 445.617L491.69 447.304L493.51 447.304L493.51 454.747C493.51 455.919 493.79 456.769 494.349 457.299C494.909 457.829 495.764 458.094 496.914 458.094Z" fill-rule="evenodd"/>
</g>
<g fill="url(#RadialGradient_6)" opacity="1" stroke="none">
<path clip-path="url(#TextBounds_7)" d="M383.72 429.567L385.829 429.567L385.829 414.556L391.183 414.556L391.183 412.657L378.367 412.657L378.367 414.556L383.72 414.556L383.72 429.567Z" fill-rule="evenodd"/>
<path clip-path="url(#TextBounds_7)" d="M384.157 458.44C384.835 458.44 385.462 458.348 386.037 458.163C386.613 457.978 387.122 457.72 387.566 457.389C388.01 457.059 388.374 456.678 388.657 456.247C388.941 455.816 389.134 455.356 389.238 454.869L389.261 454.756L387.251 454.756L387.213 454.862C387.098 455.195 386.903 455.495 386.63 455.763C386.356 456.031 386.015 456.243 385.606 456.399C385.197 456.555 384.729 456.633 384.204 456.633C383.464 456.633 382.822 456.47 382.279 456.143C381.735 455.816 381.316 455.345 381.021 454.731C380.726 454.116 380.578 453.376 380.578 452.51L380.578 451.72C380.578 450.807 380.728 450.037 381.028 449.411C381.328 448.785 381.737 448.312 382.256 447.993C382.775 447.674 383.362 447.514 384.016 447.514C384.67 447.514 385.249 447.666 385.754 447.97C386.258 448.273 386.654 448.736 386.941 449.357C387.228 449.979 387.372 450.766 387.372 451.72L387.372 452.51L388.399 451.031L379.538 451.031L379.538 452.631L389.413 452.631L389.413 451.872C389.413 450.647 389.197 449.57 388.766 448.643C388.334 447.717 387.715 446.996 386.91 446.48C386.105 445.965 385.144 445.707 384.028 445.707C382.913 445.707 381.942 445.977 381.116 446.515C380.29 447.054 379.65 447.804 379.194 448.766C378.739 449.728 378.512 450.843 378.512 452.109L378.512 452.121C378.512 453.403 378.738 454.517 379.19 455.464C379.642 456.411 380.29 457.144 381.134 457.663C381.978 458.181 382.986 458.44 384.157 458.44Z" fill-rule="evenodd"/>
<path clip-path="url(#TextBounds_7)" d="M378.156 486.849L380.422 486.849L383.374 482.185L383.446 482.185L386.377 486.849L388.662 486.849L384.554 480.632L388.7 474.58L386.424 474.58L383.517 479.174L383.444 479.174L380.502 474.58L378.205 474.58L382.336 480.714L378.156 486.849Z" fill-rule="evenodd"/>
<path clip-path="url(#TextBounds_7)" d="M383.173 515.698C383.376 515.698 383.576 515.688 383.775 515.668C383.973 515.648 384.142 515.628 384.279 515.61L384.279 513.942C384.175 513.952 384.065 513.962 383.949 513.973C383.832 513.984 383.707 513.989 383.572 513.989C383.005 513.989 382.581 513.866 382.3 513.618C382.019 513.371 381.878 512.914 381.878 512.248L381.878 504.908L384.279 504.908L384.279 503.221L381.878 503.221L381.878 499.932L379.769 499.932L379.769 503.221L377.949 503.221L377.949 504.908L379.769 504.908L379.769 512.352C379.769 513.523 380.049 514.374 380.608 514.903C381.168 515.433 382.023 515.698 383.173 515.698Z" fill-rule="evenodd"/>
</g>
<g fill="url(#RadialGradient_7)" opacity="1" stroke="none">
<path clip-path="url(#TextBounds_8)" d="M436.921 478.916L439.031 478.916L439.031 463.905L444.384 463.905L444.384 462.006L431.568 462.006L431.568 463.905L436.921 463.905L436.921 478.916Z" fill-rule="evenodd"/>
<path clip-path="url(#TextBounds_8)" d="M437.358 507.789C438.037 507.789 438.663 507.697 439.239 507.512C439.814 507.327 440.324 507.069 440.767 506.738C441.211 506.408 441.575 506.027 441.859 505.596C442.143 505.165 442.336 504.705 442.439 504.218L442.462 504.105L440.452 504.105L440.415 504.211C440.299 504.544 440.104 504.844 439.831 505.112C439.558 505.38 439.216 505.592 438.807 505.748C438.398 505.904 437.931 505.982 437.405 505.982C436.665 505.982 436.023 505.819 435.48 505.492C434.937 505.165 434.518 504.694 434.222 504.08C433.927 503.465 433.78 502.725 433.78 501.859L433.78 501.069C433.78 500.156 433.93 499.386 434.229 498.76C434.529 498.134 434.939 497.661 435.458 497.342C435.977 497.023 436.564 496.863 437.218 496.863C437.872 496.863 438.451 497.015 438.955 497.319C439.459 497.622 439.855 498.085 440.143 498.706C440.43 499.327 440.573 500.115 440.573 501.069L440.573 501.859L441.601 500.38L432.739 500.38L432.739 501.98L442.615 501.98L442.615 501.221C442.615 499.995 442.399 498.919 441.967 497.992C441.535 497.066 440.917 496.344 440.112 495.829C439.307 495.314 438.346 495.056 437.229 495.056C436.114 495.056 435.144 495.326 434.318 495.864C433.492 496.403 432.851 497.153 432.396 498.115C431.941 499.077 431.713 500.192 431.713 501.458L431.713 501.47C431.713 502.752 431.939 503.866 432.391 504.813C432.843 505.76 433.491 506.493 434.335 507.011C435.18 507.53 436.187 507.789 437.358 507.789Z" fill-rule="evenodd"/>
<path clip-path="url(#TextBounds_8)" d="M431.357 536.198L433.623 536.198L436.575 531.534L436.648 531.534L439.578 536.198L441.864 536.198L437.756 529.981L441.901 523.929L439.625 523.929L436.718 528.523L436.646 528.523L433.703 523.929L431.406 523.929L435.538 530.063L431.357 536.198Z" fill-rule="evenodd"/>
<path clip-path="url(#TextBounds_8)" d="M436.374 565.047C436.577 565.047 436.778 565.037 436.976 565.017C437.175 564.996 437.343 564.977 437.481 564.958L437.481 563.291C437.376 563.301 437.266 563.311 437.15 563.322C437.034 563.333 436.908 563.338 436.774 563.338C436.207 563.338 435.783 563.214 435.501 562.967C435.22 562.719 435.08 562.263 435.08 561.597L435.08 554.257L437.481 554.257L437.481 552.57L435.08 552.57L435.08 549.281L432.97 549.281L432.97 552.57L431.151 552.57L431.151 554.257L432.97 554.257L432.97 561.701C432.97 562.872 433.25 563.722 433.81 564.252C434.369 564.782 435.224 565.047 436.374 565.047Z" fill-rule="evenodd"/>
</g>
</g>
<g id="Layer-1" vectornator:layerName="Layer 1">
<g opacity="1">
<path d="M372.25 148.844C372.248 148.843 372.224 148.97 372.219 149C372.215 149.02 372.223 149.042 372.219 149.062C372.216 149.079 372.19 149.081 372.188 149.094C372.187 149.101 372.18 149.124 372.188 149.125C372.179 149.176 372.165 149.23 372.156 149.281C372.146 149.343 372.136 149.407 372.125 149.469C372.111 149.542 372.108 149.614 372.094 149.688C371.993 150.223 371.882 150.746 371.781 151.281C371.366 153.485 370.946 155.703 370.531 157.906C368.788 167.161 367.071 176.399 365.344 185.656C359.091 219.16 352.89 252.692 346.594 286.188C345.268 293.239 343.97 300.29 342.656 307.344C342.246 309.548 341.846 311.764 341.438 313.969C341.284 314.798 341.045 315.599 340.969 316.438C340.845 316.572 340.696 316.642 340.562 316.75C340.043 317.17 339.551 317.58 339.031 318C337.473 319.26 335.902 320.521 334.344 321.781C327.589 327.241 320.848 332.696 314.094 338.156C287.462 359.686 260.831 381.257 234.219 402.812C216.251 417.366 198.302 431.911 180.312 446.438C176.915 449.181 173.496 451.92 170.094 454.656C168.857 455.651 167.616 456.666 166.375 457.656C166.045 457.919 165.737 458.176 165.406 458.438C165.259 458.554 165.117 458.666 164.969 458.781C164.997 458.763 164.975 458.784 165.219 458.625C163.042 459.881 162.306 462.667 163.562 464.844C164.819 467.02 167.605 467.756 169.781 466.5C170.087 466.309 169.552 465.773 170.094 466.312C170.103 466.322 170.782 465.767 170.844 465.719C171.595 465.124 172.347 464.508 173.094 463.906C176.599 461.081 180.099 458.244 183.594 455.406C198.787 443.069 213.953 430.707 229.125 418.344C257.157 395.501 285.183 372.625 313.188 349.75C321.467 342.987 329.729 336.21 338 329.438C340.326 327.533 342.643 325.654 344.969 323.75C345.486 323.327 346.055 322.937 346.531 322.469C346.674 322.328 346.786 322.166 346.938 322.031C347.453 322.006 347.977 322.048 348.375 322.031C348.838 322.011 349.287 321.989 349.75 321.969C350.213 321.949 350.662 321.926 351.125 321.906C357.493 321.631 363.882 321.369 370.25 321.094C397.532 319.913 424.811 318.731 452.094 317.562C472.007 316.71 491.93 315.853 511.844 315C516.363 314.806 520.856 314.631 525.375 314.438C526.197 314.402 527.022 314.348 527.844 314.312C528.049 314.304 528.264 314.29 528.469 314.281C528.472 314.36 528.767 314.28 528.688 314.281C528.697 314.281 528.812 314.283 528.812 314.281C528.866 313.194 528.952 312.119 528.906 311.031C528.905 311.009 528.697 310.997 528.594 311C528.598 310.999 528.567 311 528.562 311C528.214 311.01 527.849 311.019 527.5 311.031C527.012 311.048 526.519 311.077 526.031 311.094C525.543 311.111 525.082 311.139 524.594 311.156C523.993 311.177 523.382 311.198 522.781 311.219C521.919 311.248 521.05 311.252 520.188 311.281C517.149 311.386 514.101 311.489 511.062 311.594C510.864 311.601 510.667 311.618 510.469 311.625C507.846 311.715 505.216 311.816 502.594 311.906C492.853 312.241 483.115 312.571 473.375 312.906C455.288 313.53 437.212 314.162 419.125 314.781C405.062 315.263 391.001 315.741 376.938 316.219C373.427 316.338 369.917 316.443 366.406 316.562C363.054 316.676 359.696 316.792 356.344 316.906C355.418 316.938 354.489 316.968 353.562 317C352.229 317.045 350.896 317.08 349.562 317.125C349.417 317.13 349.271 317.12 349.125 317.125C349.317 316.115 349.508 315.101 349.688 314.094C350.554 309.238 351.418 304.388 352.281 299.531C355.029 284.078 357.72 268.615 360.438 253.156C364.474 230.189 368.677 207.242 372.75 184.281C374.082 176.775 375.4 169.259 376.719 161.75C377.184 159.1 377.659 156.463 378.125 153.812C378.203 153.371 378.266 152.942 378.344 152.5C378.421 152.058 378.516 151.598 378.594 151.156C378.654 150.828 378.724 150.485 378.781 150.156C378.786 150.13 378.783 150.032 378.781 150.031C376.607 149.605 374.436 149.204 372.25 148.844ZM168.906 461.344C168.574 461.624 168.923 461.361 167.5 462.562C168.846 461.444 168.419 461.42 168.906 461.344Z" fill="#c6169f" stroke="none"/>
</g>
<g opacity="1">
<path d="M161.875 410.531C159.368 410.705 157.483 412.868 157.656 415.375C158.588 426.821 159.374 438.313 160.719 449.719C160.886 451.139 161.077 452.545 161.219 453.969C161.3 454.792 161.372 455.613 161.438 456.438C161.47 456.85 161.496 457.275 161.531 457.688C161.567 458.1 161.615 458.495 161.656 458.906C161.702 459.368 161.813 459.901 161.875 460.438C161.625 460.43 161.375 460.414 161.125 460.406C161.109 460.405 161.095 460.422 161.094 460.438C161.093 460.453 161.109 460.468 161.125 460.469C161.385 460.493 161.646 460.507 161.906 460.531C161.971 461.056 161.958 461.608 162.125 462.031C162.341 462.577 162.67 463.062 163.094 463.469C164.684 464.997 167.276 464.615 169.281 464.625C170.104 464.629 170.928 464.649 171.75 464.656C172.508 464.663 173.274 464.649 174.031 464.656C182.656 464.742 191.282 464.869 199.906 465.031C203.01 465.09 206.115 465.16 209.219 465.219C209.725 465.228 210.244 465.24 210.75 465.25C210.967 465.254 211.158 465.247 211.375 465.25C211.4 465.25 211.466 465.274 211.469 465.25C211.58 464.152 211.675 463.071 211.719 461.969C211.719 461.957 211.547 461.941 211.438 461.938C211.372 461.932 211.284 461.912 211.219 461.906C211.07 461.893 210.93 461.888 210.781 461.875C210.321 461.835 209.866 461.79 209.406 461.75C208.162 461.641 206.901 461.547 205.656 461.438C202.601 461.169 199.554 460.902 196.5 460.625C192.931 460.302 189.381 459.952 185.812 459.625C181.627 459.241 177.433 458.844 173.25 458.438C171.744 458.291 170.23 458.153 168.719 458C168.687 457.31 168.665 456.627 168.625 455.938C168.458 453.082 168.414 450.234 168.344 447.375C168.075 436.496 167.339 425.614 166.719 414.75C166.545 412.243 164.382 410.358 161.875 410.531Z" fill="#c6169f" stroke="none"/>
</g>
<g opacity="1">
<path d="M374.312 144.312C373.654 144.161 372.925 144.15 372.094 144.375C371.392 144.565 370.57 145.097 369.781 145.656C369.721 145.602 369.654 145.555 369.594 145.5C369.537 145.449 369.332 145.309 369.125 145.125C369.109 145.103 369.085 145.081 369.062 145.062C368.894 144.913 368.692 144.718 368.688 144.719C367.457 145.039 365.914 144.929 365.031 145.844C364.495 146.4 365.286 147.367 365.438 148.125C365.449 148.181 365.608 148.324 365.719 148.438C365.754 148.464 365.812 148.516 365.844 148.531C365.581 148.723 365.325 148.933 365.062 149.125C363.463 150.294 361.85 151.456 360.25 152.625C356.972 155.019 353.71 157.411 350.438 159.812C346.853 162.443 343.27 165.055 339.688 167.688C338.705 168.409 337.733 169.153 336.75 169.875C336.394 170.136 336.743 169.867 334.562 171.469C332.547 172.97 332.124 175.829 333.625 177.844C335.126 179.859 337.985 180.251 340 178.75C341.102 177.917 340.205 177.885 341.094 177.938C341.534 177.964 341.804 177.391 342.156 177.125C342.494 176.87 342.819 176.63 343.156 176.375C344.653 175.244 346.159 174.1 347.656 172.969C354.517 167.785 361.372 162.578 368.219 157.375C369.459 156.433 370.698 155.506 371.938 154.562C372.105 154.728 372.27 154.897 372.438 155.062C376.583 159.157 380.711 163.237 384.844 167.344C386.009 168.502 387.178 169.654 388.344 170.812C389.254 171.717 390.184 172.627 391.094 173.531C391.873 174.306 392.629 175.098 393.406 175.875C394.602 177.07 395.805 178.242 397 179.438C397.339 179.777 397.663 180.201 398.062 180.469C398.214 180.571 398.35 180.775 398.531 180.75C399.993 180.548 401.804 180.828 402.844 179.781C403.28 179.342 403.379 178.755 403.344 178.094C403.308 177.433 403.15 176.713 403.156 176.094C403.158 175.931 402.996 175.823 402.906 175.688C402.675 175.336 402.368 175.007 402.094 174.688C401.278 173.734 400.448 172.791 399.625 171.844C396.882 168.686 394.052 165.599 391.312 162.438C389.12 159.908 386.967 157.347 384.781 154.812C383.688 153.546 382.601 152.291 381.5 151.031C380.674 150.086 379.829 149.161 379 148.219C377.611 146.639 376.288 144.768 374.312 144.312ZM338.312 174.344C338.111 174.489 338.097 174.48 337.594 174.844C337.892 174.545 338.19 174.374 338.312 174.344Z" fill="#c6169f" stroke="none"/>
</g>
<path d="M352.572 303.799L384.859 303.799L384.859 311.871L352.572 311.871L352.572 303.799Z" fill="none" fill-rule="evenodd" opacity="1" stroke="none"/>
<g opacity="1">
<path d="M77.75 132.312C75.2371 132.312 73.2187 134.331 73.2188 136.844C73.2188 139.357 75.2371 141.406 77.75 141.406C77.0853 378.336 77.2659 306.498 77.0312 390.156C76.9693 412.228 76.9369 434.303 76.875 456.375C76.8589 462.125 76.8286 467.875 76.8125 473.625C76.8093 474.778 76.8157 475.941 76.8125 477.094C76.8119 477.298 76.7184 478.668 76.8125 478.812C77.0034 479.106 77.1441 479.424 77.375 479.688C77.5247 479.858 79.1237 479.781 79.375 479.781C80.6609 479.785 81.9641 479.778 83.25 479.781C88.7364 479.797 94.2324 479.828 99.7188 479.844C122.884 479.909 146.023 479.964 169.188 480.031C261.237 480.3 353.294 480.595 445.344 480.875C471.557 480.955 497.787 481.037 524 481.125C525.829 481.131 527.64 481.15 529.469 481.156C531.298 481.162 533.14 481.15 534.969 481.156C536.188 481.16 537.406 481.183 538.625 481.188C539.844 481.192 541.062 481.183 542.281 481.188C544.426 481.195 547.511 481.676 548.219 478.938C548.42 478.161 548.31 476.918 548.312 476.156C548.314 475.711 548.342 475.258 548.344 474.812C548.35 473.031 548.338 471.25 548.344 469.469C548.363 463.68 548.387 457.882 548.406 452.094C548.469 433.393 548.531 414.701 548.594 396C548.796 335.89 549.015 275.766 549.281 215.656C549.372 195.175 549.505 174.701 549.531 154.219C549.534 152.438 549.53 150.656 549.531 148.875C549.532 147.539 549.53 146.211 549.531 144.875C549.532 143.984 549.531 143.078 549.531 142.188C549.532 141.297 549.531 140.422 549.531 139.531C549.532 138.614 549.639 137.339 549.406 136.438C549.144 135.42 548.506 134.542 547.625 133.969C546.125 132.993 543.999 133.251 542.281 133.25C541.672 133.25 541.047 133.251 540.438 133.25C536.17 133.247 531.923 133.23 527.656 133.219C511.807 133.177 495.943 133.132 480.094 133.062C419.134 132.796 358.179 132.686 297.219 132.594C242.355 132.511 187.489 132.434 132.625 132.375C119.214 132.361 105.786 132.327 92.375 132.312L77.75 132.312ZM533.125 140.469C536.173 140.466 539.233 140.471 542.281 140.469C542.302 140.469 542.323 140.469 542.344 140.469C542.344 141.045 542.343 141.611 542.344 142.188C542.347 146.195 542.339 150.211 542.344 154.219C542.365 170.693 542.458 187.182 542.531 203.656C542.825 269.999 543.058 336.344 543.281 402.688C543.34 420.052 543.41 437.416 543.469 454.781C543.49 461.015 543.51 467.235 543.531 473.469C543.535 474.457 543.53 475.445 543.531 476.438C540.069 476.406 536.586 476.457 533.125 476.469C525.2 476.495 517.269 476.536 509.344 476.562C486.789 476.639 464.243 476.713 441.688 476.781C372.193 476.992 302.713 477.195 233.219 477.406C198.472 477.512 163.716 477.621 128.969 477.719C117.386 477.751 105.801 477.78 94.2188 477.812C89.9515 477.824 85.6735 477.832 81.4062 477.844C80.5114 477.846 79.6158 477.847 78.7188 477.844C78.7184 477.721 78.7191 477.592 78.7188 477.469C78.7164 476.632 78.7211 475.806 78.7188 474.969C78.7127 472.797 78.6936 470.641 78.6875 468.469C78.6692 461.939 78.6433 455.405 78.625 448.875C78.5701 429.306 78.5237 409.725 78.4688 390.156C78.3031 331.101 78.1344 272.055 77.9688 213C77.9219 196.303 77.8906 179.603 77.8438 162.906C77.8278 157.229 77.7972 151.552 77.7812 145.875C77.7778 144.636 77.7835 142.195 77.7812 141.406C79.5281 141.393 78.7774 140.899 79.5938 141.406C80.1116 141.728 80.7967 141.407 81.4062 141.406C82.6254 141.405 83.8433 141.408 85.0625 141.406C89.9393 141.401 94.842 141.38 99.7188 141.375C120.445 141.353 141.149 141.335 161.875 141.312C245.39 141.223 328.923 141.152 412.438 140.906C442.308 140.818 472.161 140.61 502.031 140.531C512.394 140.504 522.762 140.478 533.125 140.469Z" fill="#c6169f" stroke="none"/>
</g>
</g>
</svg>
